<svg xmlns="http://www.w3.org/2000/svg" width="960" height="1440" xmlns:v="https://vecta.io/nano">
    <style>
        <![CDATA[
        .B {
            fill: none
        }

        .C {
            stroke-miterlimit: 10
        }

        .D {
            fill: #4e173f
        }

        .E {
            stroke-width: 4
        }

        .F {
            stroke: #4e173f
        }

        .G {
            fill: #fff0a8
        }

        .H {
            stroke-width: 2
        }
        ]]>
    </style>
    <path fill="#fff9d9" d="M0 0h960v1440H0z" />
    <path fill="#fff0ed"
        d="M321 960l6 78-37 44-49 51 41 106-8.25 23.25s-10.5 14.75.75 34.25c0 0 18.167 28.666 63.333 30.833 0 0 69.667 5.168 101.167-15.166 0 0 46.25 32.333 98.75 25.833 0 0 22 7 44.25 6.75 0 0 46.334 10.251 96.334-18.416l94-70L787 1153.667l-10.666-101.333-10-68-22-47.333 21.333-26.667 20.667-44L791 803.001l-60.666-123.333-184.667 10.667c-2 0-108 30.667-108 30.667l-102 66.667-22.667 88v64L321 960z" />
    <g fill="#ffa2b4">
        <path
            d="M58.5 833.75s-15.75-19.5-20.5-34.5c0 0-12.75-23-12.25-53.5 0 0 4.75-51.5 22-84.75 0 0 15.25-32.5 24.25-55 0 0 14.75-31.25 21.5-43.75 0 0-4.25-40.75 7.5-67.25 0 0 7-26.5 50.5-58.25 0 0 34-22 67.75-18.75 0 0 23.75 1.75 32.25 4.5 0 0-10.75-44.5-.5-78 0 0 12.25-41.25 30.25-60.5 0 0 15.75-15 27.75-6.75 0 0 40.5 22.584 60.5 44.417 0 0 49.25 55.333 61.75 99.083 0 0 8.417-60.417 19.75-81.417 0 0 13.5-39.083 51.75-59.083 0 0 24.5-12 46.25-13.5l58-6.5s15.833-2.25 24.333-5.417c0 0 22.333-16.334 36.5-21.667 0 0 37.667-17.167 65.334-12.167 0 0 58.334 1.5 97.334 59 0 0 31.166 40 44.499 77.333 0 0 22 64 21 95 0 0 7 97.333-15 145.333 0 0-18 56-27 67.667 0 0-7 17.667-11 21 0 0 44.75 22.917 69.5 24.167 0 0 10.25-1.75 12.5 1.5 0 0 5.25 8.5-6.5 21.75 0 0-18 28.75-48 32.25l1.75 37.75s8 21 5.25 41.5c0 0 1.25 41-30 63.75 0 0-18.75 18.75-49 23.5 0 0-20.5 8.75-21.25-8.25l2.25-27s-8.75 9.25-16 14.5c0 0 15.25-24.75 11.75-65.25s0 0 0 0S766.5 771 717 723.5c0 0-101-12.75-180.75 9.25 0 0-87.917 23.583-123.917 49.25l-45.667 29.667S329.499 834.5 327.749 889.5c0 0-3.25 60 28.75 92.75l-9.75-3.25s16 21.5 24.25 36.5 0 0 0 0 11.25 14-11.75 15.5 0 0 0 0-52.75 11.333-82.917-28.333L267 985.001 58.5 833.75z" />
        <path
            d="M754.75 1123.25s-20 13-14 61.5c0 0-32.25 32.75-54.5 66.25 0 0-28 46.75-12.75 68.5 0 0-46.25 25-91 25.25 0 0 44.5 24 99 25 0 0 50.5.75 70.5-10.5 0 0 48.333-14.917 78-56.917 0 0 19.667-20.667 31.667-63 0 0 11.333-49.333 11.833-74.083 0 0 4.75-55-6.25-85.75 0 0-8.5-60-46.5-106.5 0 0-21.5-35-44-50 0 0-31.5 22-21 76.75 0 0 10 18.75 6.75 56.75 0 0 0 33-13.25 52.5 0 0 4.75 10 5.5 14.25z" />
    </g>
    <path
        d="M55.333 829.333S51 801 77 764.25c0 0 19.5-29.75 48.25-45.75 0 0 32.083-60.333 32.75-68 0 0 14.5-27.667 28-39.5 0 0 45.5 41.167 80.167 42.167 0 0 33.583 69.583 36.083 94.583 0 0 8.5 50.25 8.5 75 0 0 4.417 81.75-12.083 108.25 0 0-15.667 52.334-64.667 77.334 0 0-32.25 16.916-48.5 7.166 0 0-26-5.75-34.75-36 0 0-10.5-34.25-16.75-48 0 0-15.75-28.5-30.25-42 0 0-45.083-53.834-48.417-60.167zm392-483.333s11.666-20 68-26.333c0 0 30.334-1.667 63.334 7 0 0 12.667 4 30-3.333 0 0 56.083-19.583 99.833-24.583 0 0 61.75-7.5 91 29.5 0 0 40.75 49 26.75 102.5 0 0-39 60.5-59 70.25 0 0-55.917 50.833-77.417 59.167 0 0-74.5 49.5-112.5 50.333 0 0-58.083 18-117.583 8.75 0 0-29-4.75-41.5-21.75 0 0-16.416-23.667-10.583-51.667 0 0 2.333-20.833 13.583-41.583 0 0 7.5-15 7.5-27 0 0 2.083-58.25 5.25-73.583 0-.001 8.417-48.668 13.333-57.668zM803.25 949.5s-18 36-17.75 66.5c0 0 .334 31.667 16.334 49 0 0 27.167 35.167 66 19.167 0 0-8.834-53-20.834-70 0 0-33.75-55.917-43.75-64.667zm-44.5 54.5s.5-49 18.25-78l.25-6.5s-6.916-6.665-11.916-8.499c0 0-35.667 28.334-60.167 39.5 0 0 19.834 1.832 30.334 14.666 0 0 18.832 21.499 23.249 38.833zm-410.417-23.833S390 998.501 406 1000.334c0 0-6.167 7.833-13.667 20.833l-11.167 17.167-8.833 1.5-2.667 2.833-.333 6.167-.333 4.333s-17.25 12.333-41.25 21.333c0 0-20.75 8.25-28.75 16.5 0 0-7.75 1-21 37 0 0-11.75 27.25-5.75 41.75 0 0 5.25 10.75 9.75 16.25 0 0-7.25 32.25 11.75 56.5 0 0-15.5 10-20.5 19.25 0 0-34 .5-69.25-14.5 0 0-32.5-14.75-59-42.25 0 0-21-20.25-37-47.5 0 0-11-17.833-13.833-37.666 0 0-2.167-12.5 9.667-14.5 0 0 63.417-15.084 79.417-28.584 0 0 48.25-25.5 63.5-42.5 0 0 27-25 30-29.5 0 0 18 24.125 48.375 26.25 0 0 32.125 3.5 46-4.25 0 0 4.75-2.625-.125-10.25-.001 0-17.209-29.791-22.668-36.333z"
        fill="#97445d" />
    <g fill="#e0acc1">
        <path opacity=".7" class="black"
            d="M409.333 533.667s-34.667-13.667-79.667-55c0 0-38.917-39.167-56.167-73.667 0 0-8-14.167-13-26 0 0-2.333-2.833-2.333 6.333 0 0-1.666 33.5 15.5 70 0 0 14.833 31 31 48.167 0 0 22.5 27.5 58.667 41 0 0 18.333 6.667 43.833 6 .001 0 1.001-13.833 2.167-16.833zm-2.666 32.666S360.25 598 299.5 604.25c0 0-52.5 3.875-79.75-5.625L188 588.667s-6.333-4 .333 4.833c0 0 14.167 17.25 34.292 29.875 0 0 24.042 15.292 46.208 20.792 0 0 28 5.667 48.5 2.167 0 0 5-19.5 17.333-24.667 0 0 16.667-12.5 37 .5 0 0 9.833-15.834 18.833-20.167 0 0 11.667-6.833 27.5-5.5.001 0-13.166-24.833-11.332-30.167zm214-301.666l-61.667 62s-9.25 8.583-6.25-1.167c0 0 5.75-17.5 6.625-26.625 0 0 2.406-16.115-7.844-22.031 0 0-2.875-1.031 7.886-2.01 0-.001 39.792-4.876 61.25-10.167zM456.333 518.5s124.334-81 146-103c0 0 14.416 11.5 13.791 28.625 0 0-1.292 15.792-8.208 25.625 0 0 10.833 15.875 3.458 36.875 0 0-5.208 15.792-25.291 31.375 0 0 55.666-7.5 108.916-39.5 0 0 67-37 90.5-111.25 0 0 14.5-43.75 15-78.75 0 0 1.75-45.25-25-67.25 0 0 43 18.25 80 90.5 0 0 22 40 27.75 82.25 0 0 6.417 32.833 6.75 53.833 0 0-21.832-12.5-39.999-.167 0 0-23 15.5-39.5 50.667 0 0-37.168 82-118.501 116.667 0 0-122 35.75-184.5 25.75 0 0-28.5-4.25-45-11.5 0 0-8.75 31.5-22.5 52.75 0 0-8.375 15.25-19.625 20.875 0 0-11.625 6.875-24.625 1.375 0 0-13.125-6.375-23.25-13 0 0 59-69.25 72.833-95.417 0 0 48.5 13.667 107.833.333 0 0 60.166-10.834 83.833-25.167 0 0 81.666-44.667 110.333-72.667 0 0 6.166-4.167 9.5-7.333 0 0-64.666 38.333-88.666 49.833 0 0-72.917 38.417-132.917 47.167 0 0-49.75 9.5-79.417-1.833 0 0-26.5-8.333-35-26.833 0 0-8-14.333-1.167-37.333 0 0 6.5-23.167 13.5-37.833.003 0 9.836 13.166 23.169 14.333zM803 647.625s30.5 11.875 54.25-8.875c0 0-9.875 31-20 42.75 0 0-27.625-24-34.25-33.875zm-535.75 6.125s37.25 3 49.5 2.25c0 0 2.5 15.5 16.75 31.5 0 0 17.5 50 0 102.75l-23 15.917s-4.75-57.667-11-72.167c0 0-26.5-72.75-32.25-80.25zM271.5 686s34 63.75 29.75 132.5c0 0 16.75 113.5-45 163 0 0-21.917 26.335-59.083 27.001 0 0-18.833-.5-30.167-16 0 0-9.333-12.668-14.5-34.334 0 0-9.125-34.917-25.875-54.042 0 0 31.708 6.542 59.042-16.458 0 0 69.333-70.334 78.333-132.667 0 0 10-48.667 7.5-69zM93.25 591.5L62.5 654s13.25-2.25 20 18.5c0 0 4.167 11.333 5 14.333 0 0 4.333 9.667 6.833-1.333 0 0 2.333-29.5-.667-63.833L93.25 591.5zm126.417-84.833s-19.667-22 5.667-76c0 0 19.333-2.667 28.667 1 0 0 12.667 39.667 23.667 53.667l20.333 27-41.667-6-36.667.333zm570.166 352.334s-5.333 36.834-3.833 55c0 0 1.333 16.999 8.5 9.166 0 0 13.667-15.167 21-44.5 0 0 12.667 11.834 21.667 7.334 0 0 20.334-10.501 24.834-54.501 0 0 6.499-5.334 13.666-13.667l-3-13-9.166 5.667-11 9.167-3 12.333-8.667 23.833-7 13.667-4.167 6.833-6.833-1.166L804.667 863l-13.5-10-1.334 6.001z" />
        <path opacity=".7"
            d="M763.667 849.334l20.667-4.333 6.666 6.666-1.167 7.334-9.499 27.333S741.666 931.333 692 954.667c0 0 17.501.666 26.334 5.5 0 0 18.333 9.834 28.333 32.334 0 0-13.666-9.834-53.333 8.166 0 0-28.333 9.668-27.833 29.334 0 0-16.251-13.501-26.251-17.501 0 0-22.375-13.5-49-9.125 0 0-25.916 6.792-44.083 36.292 0 0-60.5 22-120.333-7l-33.333 4.666 11-19.5s7.833-16 14.167-16c0 0 34.334 2.168 47.667-.166 0 0-45.583-5.167-82.333-17.667 0 0-34.5-11.25-64.75-24.25 0 0 19.75 18.75 29.875 34.125 0 0 10.875 16.375 15.375 26.625 0 0 2.5 5.875-9.375 1.5 0 0-25.125-10.501-52.125-52.167 0 0-11.833 21.833-26.667 32 0 0-9.333-12.999-7.833-18.166 0 0 19.833-20.834 25.333-35.834 0 0 9.333-23.834 11.667-33.5 0 0 43.75 25.167 81 35.917 0 0 29.25 10 67.75 14.75 0 0 58.749 3.001 92.583-4.833 0 0 94.917-19.167 139.417-54.667l78.415-56.166zm-383 208.333s23.333 19.501 65.167 22.334c0 0 12.042.499 26.542-2.501 0 0 8.75-3.25 7.125.75 0 0-7.75 13.375-39.125 17.5 0 0-21.375 3-42.375-13.375-.001 0-10.543-8.166-17.334-24.708zm37.083 73.583s11 9.25 40.875-5.875c0 0 22.125-13.75 30.875-28.5 0 0-2.375 26.5-25.75 43.125 0 0-20.5 15.75-37.75 11.375 0 0-6.75-1.709-11.167-3.542 0 0-3.833-1.584-1.167-7.75.001 0 2.584-5.916 4.084-8.833zm-45.5-70.375s-20.5 14-44.125 21.875c0 0-5.875 2.5-8.75 4.75 0 0 20 1.875 22.625 29.375 0 0 3.25 23.625-16.625 50.125 0 0-9.875 15.375-30.125 19.375 0 0 14.25 6.75 33.875-8.875 0 0 10.5-8 20.75-27 0 0 15.125-27.334 10.125-50.167 0 0 3.5-1.333 4.5-.833 0 0 4.5 32.501-9.167 53.667 0 0-24.958 52.958-64.833 39.208 0 0 5.25 11.25 23.75 10 0 0 19.5-.5 33.75-15.75 0 0 6.375-6.375 13.125-17.375 0 0 3.125-5 5.75-6 0 0 6.5-4.75 6.25 6.875 0 0-.625 25.625-8 44.875 0 0-8.75 28.25-30.125 24.375 0 0-27-2.625-43.375-21.375 0 0 10.042 29.168 43.875 42.001 0 0 11 5.499 18.667 8.999 0 0 20 8 24.667 23 0 0 6.292 17.5-2.583 26.875 0 0 36.375-3.75 55-13 0 0-35.25-23.375-48.25-74.875 0 0-4.167-34.167 1.667-72.5 0 0 7.5-29.999 17.833-45.833 0 0 4.667-12 6.167-14-.001 0-27.168-11.084-36.418-37.792zm-156.5 176.375s43-13.5 63-54l3.75 4.5s-3.75 34.75 10.25 55c0 0-8.25 7.25-11 9.25 0 0-33.5 4.75-66-14.75zM321 1077s9.75-17 2.5-46c0 0 30 3.333 44.167-2.5 0 0 10.333-3.999 4.5-9.833 0 0-18-33-24.5-38.667 0 0 44.5 18.333 59 20.5 0 0-11.166 11.001-16.833 24.167l-9.5 13.666s-15-4.166-11.167 15.167c0 0-13.833 11.333-30.667 15.833L321 1077zm206.667 17.501s11.666 31.332 63.333 20.666c0 0 39.25-13.167 52.5-44.167 0 0 15.5-28.5-1-56 0 0 26 16.25 37.75 32 0 0 .751 22.5.084 45.667 0 0-1 15.501 8 26.334 0 0 11.667 15.5 34 6 0 0 6.166-2.376 17.791-14.251 0 0-12.125 29.375-50 43.5 0 0-20.25 7.75-35.125-8.625 0 0-13.125-12.375-19.375-27.25 0 0 13.25-12.25 10.125-14.375 0 0-1.125-2-6.875 3 0 0-30.375 32.25-58.375 32.625 0 0-20.75 1.375-35.75-11.25 0 0-15.541-11.748-17.083-33.874zm-7.167 26.5s-2.833 33.166 64.667 40.333c0 0 10.667.667 17.5-.833 0 0 12.834-2 20.5 14.5 0 0 10.333 50.999-25.417 80.249 0 0-28 21.5-60.25 13.75 0 0-29.25-4.5-47.25-33.5 0 0 .75 20.167 4.917 27.834 0 0-14.167 15.501-37.833 11.167 0 0-42-6.167-60.167-29.167 0 0 20.499 47.001 57.5 66.167 0 0 28.167 15.832 61.167 17.666 0 0 2.501-.333-1.166-3.833 0 0 26.458 6.791 55.458 9.416 0 0 46.208 5.251 87.375-15.416 0 0 20.667-10.999 43.667-31.333 0 0 35.334-31.334 39.834-62.834 0 0-22.334 37.166-60.167 36 0 0-18.833-1.833-26.333-39l-4-22s-3-23.168-6-35.334c0 0 23.165 20.333 52.832 11 0 0 21.5-8.333 28.667-19.333 0 0 15.667-5.333 24.167-15.833 0 0-2.834-16.5-5.334-25.167 0 0-20.666 27.833-37.833 38.5 0 0-23.499 19-52.333 3.5 0 0-21.5-20.334-26.667-32.167 0 0-16.25 18.667-46.25 19.917 0 0-35.75 4.75-58.5-26.25l-2.751 2.001zm85.001 223s44.666 19.666 86.166 17.166c0 0 40.333-2 69.833-16 0 0 17.5-7.917 47.5-31.167 0 0 26.5-23 45-76 0 0 18.75-50.25 12.25-97.5 0 0-14.917 55.333-51.417 78.667 0 0-21 13.166-45.333 5.5 0 0 10-15.667 10.75-63.167 0 0-.25-44.5-13.75-59.25 0 0 13.75-22.75 15.25-68.75 0 0 4.583-54.833-34.417-80.166 0 0 20.667-23.001 27.667-33.667l-8.333-8.333-33 22.333L704 950.001s23.5 2.249 36.25 20.249c0 0 27.75 38.75 22.75 80.5 0 0-1.75 41-13.25 57.5 0 0 12.583 30.084 5.583 80.084 0 0-.833 47.666-37.333 91.166 0 0-23.666 34.167-59.333 47.5 0 0-35.998 14.669-53.166 17.001z" />
    </g>
    <path
        d="M580.333 1102.167l-.942 1.773-1.062 1.979-1.322 2.541-1.517 2.976-1.563 3.349-1.321 3.702-.591 1.925-.444 1.975c-.352 1.307-.457 2.654-.652 3.962l-.141.979-.043.977-.083 1.915-.04.935.045.918.082 1.773c.003 1.157.213 2.235.344 3.237l.429 2.727.491 2.081.4 1.828-3.805 1.234-.609-1.95-.669-2.256c-.146-.432-.239-.906-.315-1.413l-.271-1.587c-.188-1.107-.431-2.304-.44-3.599l-.1-1.982-.05-1.025.059-1.045.138-2.141.076-1.089.176-1.089.91-4.373.599-2.156.769-2.079c.474-1.39 1.176-2.656 1.741-3.923l.981-1.793 1.002-1.676 1.046-1.522 1.086-1.343c.696-.855 1.445-1.555 2.081-2.181l1.801-1.479c1.039-.77 1.724-1.085 1.724-1.085zm-40.166-11.833l-.145.486-.416 1.314-.664 1.969-.876 2.473-1.062 2.85-1.108 3.172-.876 3.465-.387 1.79-.251 1.824c-.225 1.21-.204 2.442-.313 3.642l-.062.897.021.891.037 1.746c-.007.574.038 1.137.105 1.686l.16 1.612c.063 1.054.3 2.027.454 2.938l.492 2.476.51 1.89.413 1.667-3.736 1.428-.699-1.744-.768-2.025c-.328-.774-.472-1.719-.748-2.715-.247-1.005-.557-2.088-.657-3.276l-.232-1.815-.119-.94c-.032-.317-.02-.641-.03-.965l-.029-1.979-.013-1.009.072-1.016.488-4.098.371-2.035.53-1.979c.33-1.316.847-2.549 1.271-3.761.219-.604.502-1.171.742-1.739l.769-1.635c.548-1.04 1.118-1.992 1.735-2.815.578-.844 1.23-1.54 1.793-2.152a16.19 16.19 0 0 1 1.619-1.457c.956-.758 1.609-1.061 1.609-1.061zm33.458 70.541s-.409-.922-.752-2.36c-.169-.72-.334-1.566-.445-2.485l-.126-1.424a13.85 13.85 0 0 1-.038-1.487c-.007-1.003.094-2.018.253-2.975l.339-1.374.461-1.22c.368-.746.703-1.353 1.05-1.748l.519-.605 3.23 2.357s-.048.191-.174.482c-.056.15-.151.306-.224.537s-.196.448-.295.725l-.737 1.956-.422 1.17-.432 1.249-.409 1.287-.386 1.273-.688 2.314-.724 2.328zm-40.375-8.625s-.145-.29-.321-.81c-.189-.519-.394-1.265-.571-2.169-.103-.453-.146-.941-.225-1.464l-.118-1.644.022-1.764c.021-.602.091-1.211.169-1.824l.317-1.825c.105-.603.309-1.193.465-1.764.181-.567.418-1.114.612-1.633.224-.515.504-.989.729-1.431.237-.439.554-.818.785-1.161.225-.345.509-.613.726-.84l.709-.675 2.9 2.754s-.102.22-.303.562a4.73 4.73 0 0 0-.354.638l-.439.877-.486 1.105-.508 1.301-.513 1.448-.502 1.543-.491 1.58-.486 1.556-.49 1.476-.47 1.339-1.157 2.825zM321 1142.167l.293.338.78.942 1.125 1.458c.462.545.875 1.198 1.394 1.874l1.549 2.216 1.672 2.468 1.928 2.515 2.127 2.457 1.108 1.188 1.167 1.104 1.142 1.088 1.186.976 1.146.94 1.151.826 1.089.786 1.064.659 1.876 1.147 1.512.771 1.313.709-1.414 3.742-1.578-.556-1.804-.681c-.683-.295-1.412-.714-2.231-1.128l-1.263-.676-1.271-.852-1.342-.902c-.455-.313-.871-.692-1.313-1.054l-1.335-1.118-1.28-1.234-1.26-1.292-1.174-1.382c-.806-.904-1.498-1.893-2.186-2.857l-1.857-2.928-1.504-2.858a20.95 20.95 0 0 1-1.03-2.704c-.275-.853-.448-1.667-.579-2.388l-.228-1.9c-.063-1.066.027-1.694.027-1.694zm-27 22l.729 1.506.814 1.679 1.072 2.118 1.293 2.436 1.485 2.641 1.739 2.694.962 1.327 1.055 1.264c.666.875 1.46 1.631 2.217 2.393.725.797 1.583 1.423 2.338 2.109l.574.498.613.424 1.168.847c.731.594 1.531.991 2.231 1.423l1.949 1.125 1.57.763 1.363.706-1.348 3.766-1.62-.544-1.853-.671c-.724-.244-1.46-.706-2.309-1.113-.842-.423-1.751-.893-2.628-1.533l-1.377-.94-.703-.5-.664-.578-1.356-1.186-.684-.612-.625-.686-2.419-2.868-1.101-1.521-.958-1.594c-.327-.521-.625-1.051-.881-1.595l-.79-1.589-1.148-3.143c-.303-1.018-.53-1.994-.66-2.912-.185-.901-.217-1.76-.279-2.501l.011-1.944c.064-1.081.22-1.689.22-1.689zm2.333 109l-2.213 5.237-1.05 2.471-1.147 2.736-1.183 2.92-1.087 3.05-.974 3.074-.806 3.007c-.285.971-.418 1.937-.631 2.836l-.282 1.315-.19 1.241-.356 2.172-.202 1.686-.213 1.474-3.999-.104-.021-1.612.018-1.855.214-2.394.155-1.366.258-1.446.678-3.097.962-3.245 1.223-3.265 1.458-3.156c.478-1.04 1.059-2.009 1.595-2.954 1.136-1.86 2.342-3.499 3.5-4.804.554-.668 1.141-1.225 1.627-1.732l1.373-1.227c.784-.656 1.293-.962 1.293-.962zm43.167 17.334l-.147.458-.426 1.219-.67 1.815-.926 2.234-1.145 2.563-1.218 2.867c-.417.995-.731 2.072-1.083 3.147-.368 1.07-.624 2.199-.946 3.302l-.717 3.362-.521 3.294-.339 3.108-.179 2.805-.106 2.381-.026 1.845-.055 1.614-3.988.303-.194-1.706-.187-1.966c-.1-.76-.079-1.623-.088-2.564l.041-3.044.28-3.396.595-3.604.903-3.666 1.204-3.582 1.476-3.351c.498-1.077 1.061-2.08 1.598-3.025.552-.938 1.152-1.782 1.759-2.519.625-.727 1.226-1.364 1.831-1.871.581-.521 1.164-.912 1.641-1.22.976-.605 1.633-.803 1.633-.803z"
        fill="#c0849c" />
    <path
        d="M430.167 480.333l-9.833-19-2-13.5V439l1.5-6 5.167 1.5 9.667 2.5 11.167-1.5 6.5-5.833 1.833-3L452.833 411l.5-11.833 4-4.5 8.333 1.667 6.667 3.5 2.167 1.667 20.5-12.667 13.5-2.333 13.334-3 12.833 2.5 10.5 4c.667.333 10.667 7.167 10.667 7.667s4.5 5.667 4.5 5.667l7.833-4.667 7.5-2.833s6.001.333 6.667.667l6.5 3.167 5.833 6.667 5.667 7 4.5 14.833 1.333 13.667-2 12.667-4.5 11.833-1.5 3.5 2.5 5.333 2.5 19.167-3.334 11.833c-.166.666-8.166 14.333-8.166 14.333l-9.5 9-8.667 5.667-9.5 6.5-7.833 6.5-3.834 7-3.833 6.5s-1.167 4.167-1.5 4.667-6 .5-6 .5l-7.167-2.333-5.333-7-7.667-10.167-10.833-1-29.167-8.833-14.5-8.333-10.167-9.833-6.5-12.333-3.833-9.833-2-4.833-6.5-5.5-7.166-6.505zM666.501 455.5l-4.334 5.333-3.5 11.333s3.666 11.5 4.5 13.167 6.333 9 6.5 9.5 12.5 4.833 12.5 4.833l18.334.167 12-3.833 27.166-12.667 17.334-12.667 9.166-8.667s7-12.167 7-12.667-1.5-11.667-1.5-11.667L765.501 427l-7.334-2.167-9.333-1.5-5.833 1.167-8-7.667-12 1.833-3 1.333-5.834-2.667-9-3.667-13.333-.167-7.5 3.667-7.5 4.5-7.667 6.5-3.5 15.333.667 7.167.167 4.835zm64.749 338l-11.75-30.25-5-16.25v-7.75l3.75-3.25 34-3.75 20-1 6-7.25 17-17.25 14-9 4.75-3 8-2.25 5.5 3.75 5.25 9.25 7.25 23.25.25 13 .75 3 18.25 13 12 7.25 5.75 6.75c.75 1 8.25 9.25 8.25 9.25l2 5.75-5 6.5s-7.75 9.75-8 10.5-13.75 8.75-13.75 8.75l-8.25 7.5-1.75 10-6.5 17.833-2.167 9.167-6 8.167-4.666 7.666-3.5 3.667-10.167-4.167-22.667-17-10.5-10.333-16.166 2.333-5.167 2c-.5.167-2 8.667-2 8.667l-5.5 11.833-.833 1.834 5.166 14.5 2 11.166-.5 7.667-5.833 3.5-15.167-1.167-15.666-.833-4.834 7-9.166 7.833-8.667 6-4.833-1.667-7.834-10.5-8.166-21.666-8.334-6.334-12.5-11-2.5-5.333 2.167-4.167 7.5-5.833 14.833-10.667 7.5-20 7.334-10.666 6.5-4.334 5.166 1.667 6.5 4.5 9.834 8.833s1.5-30.499 6.083-36.666zM472.333 686.667H483l8.167-2.167s10.667 2.167 11.167 2.5 19.166 5.833 19.166 5.833l8.334 8 6.833 15 1.333 12-2.5 11.5-2.166 9.5-7.667 10.5-7.167 7.167-7.166 5.334-7.167 6.666-9.833 1.667-10 2-8.5-4.5-18.667-17.333-10.5-11.167L440.5 732.5l1.667-11.667 5.667-16.333 10.667-10 13.832-7.833zM372 620.833l6.167-7.333 11.333-9.667 13.5-6.167 15.833.5 7.667 6.667c.834.667 11 7.833 11 7.833l9.333 6.167 2.833 7.5 3.333 16.5-7 23.5L436.333 688 424 707.5l-4.667 6L412 718l-8.667 1.167-10.167-1.833-21.5-5-25.5-13.833L334 687.833s-8.833-6.667-8-7.833-7.833-17.667-7.833-17.667l1-17.333 2.5-8.333 9.833-12 11.167-6.167 12-2.333 10.167 3.5 7.166 1.166zM193.167 842.334l-2-8.833 4-20.334 8.666-7.833 6.834-4.833 9.333-4.834 13.5.667 13.833 1 5.334 5.667 5.166 5.833 3.334 9.333L272 820.834l13.333-2.833 17.834 1.5 9.333 3.833 7.5 8 6 9 1.167 13.5-2.5 17.167-5.667 7.833-6.833 6.167-1.834 11-5.333 8.666-7.167 11-15.166 7.667L264 925.667h-14.833l-14.834-3.166-14.166-8-13.834-7.667-13.833-8.833-7.667-13.167-.666-16.5 4.833-17zM129.5 679.333l-.833-8 5.833-8.833 6.5-7 10.333-2.833 9-3 12.667 4 9.5 9 3.333 7.833 3 5.667c.167.5 4.667 5.833 5.167 6.333s4.667 6.667 4.833 7.167-2.333 7.833-2.333 7.833l-5.167 4-7.167 3.667-5-.333-2.333 2-5 2.667-.833 8.166-6.833 6.5L158 729.5l-14.167 3.667-9.5-2.833c-.667-.334-11.667-4.167-11.667-4.167l-8.333-11L111 696.833l2.833-14.667 4.833-6.5 4.167 2.833c.5.333 6.667.834 6.667.834z"
        fill="#fff" />
    <path
        d="M739.167 833s-2.667-6.5 1.208-17.375c0 0 5.125-17.25 8.25-22.25L751 789.5s-5-9.313-7.625-13.688c0 0-3.791-7.146-5.791-13.979 0 0-4.001-9-2.167-14 0 0 2.75-4.666 11-5.083 0 0 25.834-1.667 34.584.083 0 0 11.999-15.458 16.249-19.208l9.5-8.375 5.25-3.375 3.875-1.75 3.625.25 3.5 2.375 4.625 7.75 2.25 8.625.875 7.875.25 9.625.875 5.75 10 5.5 8.625 5.25 3.875 2.625 5.875 4.625 6.125 4.875 6.125 6.5.375 4.25-2.625 4.625-10.5 8.5L849 804.5l-9 3.5-.625 11.875-2 11.75-2 9.875-4.125 7.875-5.625 6.75-3.875.125-11-7.125-13.875-14.625-6.25-7.5-5.5 1.875-17.875 5.625-12.5 2.125-10.625.375-4.125-2.875-.833-1.125z"
        class="G" />
    <path fill="#fec88f"
        d="M693.875 855.125l3-14.5 3.5-11.25L703 826.5l3.625.625 3.25 2.125 5.25 5.125 9.625 10.125 2.5 4.125 3.25 2.5 12.75-.625 9.375-.125.5 2.5-2 7.25-2.625 3.125-1.25 4.125-2.75 3.875 5.125 8.5 4.125 10-.25 4.875-1.5 2.75-7 1.375-14.5-2.25-7.625-1.875-2.625 3.875-6.5 8.875-4.25 4.25-4.25 1.875-4.375-1.5-2.625-3.625-5.875-20.5-7-5.125-8.5-5.5-3.125-5.375 2.25-4.5z" />
    <path fill="#a6f0ff"
        d="M670.5 476.875l3 5.5 9.375 5.375 11.75 1.125 8.25-2.25 15.25-4 13-5.75 11.25-6.875 10.875-6.25 6.625-6.25 4.75-7.25V444l-1.375-4.375-3.75-3.75L752 434l-4.25 1-3.25 1.25-1.5 1.5-2.75-6.75-6.125-2.5L728 428l-4.25 2.5-4 2.25-5.75-6.5-10.625-4.5-7.875 1.125-5.75 2-3.5 3-3.125 3.875-2.75 7.375-.875 7.5.5 6.5 2.125 5.25-.375 1.25-2.375.625-6 3.375-2.875 3.25-.625 5.5z" />
    <path
        d="M561.667 418.5l-6.334-11.667-10.333-7.5L533.5 395l-6.833-.333-8.292.083-8.5 1.375-6.375 2.125-7.75 4-5.375 4-4.125 2.125L483 412l-3.375 3.5-.25.75 4 3.875 6.5 5.75 8.25 7.5 1.5.875 6.25-1.625 9.125-2.75 7.125.25 7.375.375 8.375 2.25 6.125 2 6.5 3 1.375 1.5 3.25-7.625 4-8zM469 429l-7.833 8.917-6.25 4.083-3.917 2.667-7.333 2.5h-7.333l-4.333-.5-2.25.25-1.583 2.333-.167 5 2.333 7.083 4.25 6.917 6.25 7.083 5.667 3.583 4.083 2.583c.416.083 6.417 1.75 6.417 1.75l3.167.333.5-4.083 1.917-3.917 2.333-1.333 1.917-1.583 4.167-1.5 1.5-2 1.167-5.083 4-7.917 3.667-5-4.167-5.583L469 429zm103.625 57.5l4.875-4.687 6.875-6.875 5.813-8.375 1.437 4.125 1.813 15.187-.563 10.375-1.25 6.5-5.187 9.813-4.313 3.875-8.687 6.812-6 4.375L563 530.25l-4.25 3.125-6.187 4.313-3.813 3.75-3.25 4.5-2.75 4L541.5 553l-1.25 1.625-1.437-.937-6.063-7.125-2.687-8.938 1-7.812 3.062-10.188 4.375-5.312 3.875-5.125 7.25-5 6.938-4.5 7.5-3.5 6.062-3.875 2.375-4.875z"
        fill="#ffb3c9" />
    <path fill="#c2cbff"
        d="M347.875 633.625l5.375-.625 4.375-.5 8.625 1.75 5.25 1 4.125 2.5 4.375 2.5 1 1 1.5-6.875 5.25-11.625 4.625-6.25 3.75-3.375 9.375-3.25 8.125-.375L420 611l6.625 4.375 6.25 6.125 6.25 11.875L440 642l-1.125 12.125-.875 5.125-6.125 16.75-6.375 9.875-4.375 6.625-6.125 6.75-3.125 3.125-4.875 1.75h-6.75l-16.75-2.875-8.5-3.125-11.625-5.5-12.25-7.125-7.625-7.25-5.375-7-2.625-7.125-1.375-8 .375-9.25 3.75-6.125z" />
    <path fill="#bbe989"
        d="M469.125 703.375l-3.875 2.75-.5 4.75 2.5 3.5 2.5.625h3.625l2.125-1 1.625 2.75 2.375 1.375 4.75-1 2.375-1.125 1.125 2.375 3.875 2.875 5.5-.75 3.5-2.75.875-3.75 3.625 1.75 5.625.875 4.75-2.25 3-2.625-.25-3.125-3.75-3.75-12.75-4.75-11.125-1-12 1z" />
    <path fill="#ffb3c9"
        d="M464.5 706.5l-5 4.833-4.667 11.501 1.334 11 6 15.333 7.666 8.667 7.167 6.333 6 4 7.667 2.5 6.333-1.333 5.333-3.5 10.834-10.5 9.166-11.667L527 732.334l-.333-12.501-3.334-6.333-5.5-6-.583 5.75-4 2.375-5 .375-3.125-.25L501.5 714v2.375l-6.5 5-3.125-.75-4.25-2.75-1-1.875-3 1.875-5.25-.125-2.25-3-5.625.25-5.375-3.25z" />
    <path
        d="M466.313 728.313l2.5 3.687 2.375.125L473 729.25l-.25-4.062-3-1.313-1.937.75zm21 2.312l-1 2.375-.063 3.75 2.313.813 2.5-.375c.312 0 1.188-1.188 1.438-1.438s1.813-2.25 1.625-2.25-.438-3.375-.438-3.375l-1.688-1.25-2.75-.5-1.937 2.25zm22.437-1.75l.313 3.125 2.437 1.438 2.063-.875 1.625-2.875-.875-4.063-2.125-1.125-2.813 1.938zM477.688 753l1.563 1.5 3.25.938 2.063-1.75s.063-2.063-.063-2.313-1.125-4.063-1.125-4.063l-2.188-1.938s-1.313-.625-1.75-.375l-2 1.063-1.063 3.625 1.313 3.313zm18.937-1.312l1.563 3.312 2.937.5 2.125-1.937 1.313-3.5-.625-4.063-3.375-1.875-1.75 1.438-2.25 2.625z"
        fill="#fff" />
    <path fill="#bbe989"
        d="M204 843.5l.125-6 3.25-15.375 3.625-6 3.75-3.25 3.875-3.375 3.875-2 7.75-.625h4.625l9.625 3.625 4.75 3.625 3.375 4.125 2.25 3.25 1.875 5.875 3.625.625 5 1.75L270.5 832l.75.875 2-1.375 9-4.75 9.375-1.125 6.875 2 5.25 1.625 3.125 2.625L312.25 839l3.25 7.625-.125 11-3 6.75L308 871.5l-3.5 3.875-.75 4.5-1.5 6.75-4 9.875-4.875 6.875-5.5 4.75-10 4-10.125 1.25-12.125-.875-15.375-3.25-12.875-4.875-13-6.375-12.125-10.125-4.375-10.75-1.625-14.75 2.375-7.25z" />
    <path
        d="M142.083 691.583l-2.25-6.25v-7.917l2.667-7.75 2.583-4.083 4.583-3 3.833-1.833 4.917-1.833 5.5.25 5.5 1.167c.25.084 3.833 2.083 3.833 2.083l5.667 6 2.583 5.083 1.75 7.583-1.5 7.5-2.582 4.417-2.667 4.333-4.583 2.167-5.417 2.083-4.167.833 1.5 2.75.083 7.25-2.333 4.25-5.667 3.75-6.5 1.917-11.25-.917-6.333-2.5-5.833-5.25-4.333-7.833-.75-6.75L122.75 693l2.167-3.5 2.25-.5 4.25 1.167 8.25 1.833 2.416-.417z"
        class="G" />
    <path fill="#fec88f"
        d="M183.5 683.167l-1.25 3.667-1.25 4-1.75 3.5.5 1 7.75-.833 2.833-3.583.667-4s-1.417-1.417-1.75-1.417-5.75-2.334-5.75-2.334z" />
    <path
        d="M480.5 451.375s10.625-12 19.25-16.625l-16.375-14.625-9.75-9-4.375-3.25h-3.125l-3 2 .125 3.25 1.875 5.625 6.5 15.125 8.875 17.5z"
        class="G" />
    <g fill="#e0acc1">
        <path opacity=".7"
            d="M206.5 908.75s22.25-4.75 53-26c0 0 17.334-14.083 30.167-30.583 0 0 16.667-20 21-29.667l7.833 6.667 8.333 19.166L324 871.5l-7.333 9.833-5.5 3.334.5 5.833-5 15-10.333 9.667-13.167 8.333-19 3.667-20.167-2.5-26.667-11-10.833-4.917zM119 721.333s44.667-17.5 69-46.167l1.333 3.167 4.667 4.833 4.5 6.667-3 6.167-4.167 6-7.333 1.833-5.667.833-3.667 4.667-2 2-1.833 5-8.5 11-9.5 4.334-9.333 1.166c-.5.167-13.833-3.333-13.833-3.333l-8.167-5.667-2.5-2.5zM354.75 703.5S390 699.667 435 612.333l11 5 6 13-.667 9.667-2.583 19.75-3.5 6.5-12 28.25-13 18-8 4.75-9.5 2.25-18-3.5-14.75-4-15.25-8.5zM479.5 536s74.499-17.666 113.833-133.667l8.834 12.833 2.333 8.333 2 12.833-2.333 13.833L598 470.333l3.5 9.167.833 14.833-4.5 16.833-9.333 12.5-12.333 9.667-11 7.333c-.667.333-9.167 8.167-9.167 8.167l-7 10-2 5.5-3.833 2.667-6-1-6.834-5.333-9.666-14-6.834-.333c0-.001-23.833-3.167-34.333-10.334zm209.75-36.5s38.75-34 49.25-80.75l5 6.5L750 424l7.25-.5s8.5 1 10.5 6.25l2.75 8.25 2.75 10.75L767.5 461l-15.25 13.75-16.25 11.5s-11 5-12.25 5-21.5 7-21.5 7l-13 1.25zM460 765.333s49.668-19.333 67.334-68.667L535.25 707l3.25 17.5-1.75 15.5-7.5 16.5L513.5 772l-13.5 7.75-8 2.5-7.5-.5-13.75-7-10.75-9.417zM682.5 900s33.75-9.75 72.75-50.25l7-1.75-2.5 13-4 7-1.5 4.25 5 11.75 1.75 12.5.5 10-3 1.5-13.5.5-14.25-1.25-6.25-1.25-6.25 7.75-8.5 9.75-6.25 3.75-4.75-2L690 916l-7.5-16z" />
        <path opacity=".7"
            d="M725.334 831.334s70.001-3 124.667-82L869.334 764l12 11.334 6.667 9.333-2 5.667-9.667 9.666-12 9.667-9.333 8.667-3 2L846.334 842l-8 21-4 7.667-5.333 6-9.334-3.667-19.666-13.666-16-14.667-13 3-17 2.667h-18.334l-8.333-2-1.667-9.667-.333-7.333z" />
    </g>
    <path
        d="M152 667.5s-2.25-1-5.25 5.167c0 0-1.25 2.875-1.417 7.333 0 0 .208 3.958 1.458 6.833 0 0 1.459 3.292 2.917 2.917 0 0 1.5-.417.542-3.208l-.958-3.396s-.938-3.667.188-7.417c0 0 .625-1.625 1.979-3.979s1.791-3.646.541-4.25zm-2.312 27.156s-1.281.719-.844 2.094c0 0 .25 1.094 1.469 1.156 0 0 1.469-.188 1.563-1.406-.001 0 .437-2.437-2.188-1.844zm-17.125.25s-2.813-.625-3.313 1.344c0 0-.656 1.875 3.531 2.625 0 0 3.938 1.094 5.281-1 0 0 1.406-2.406-2.906-2.594l-2.593-.375zm231.354-54.823s-2.042-.75-3.292 1.083c0 0-.916 1.417 1.167 3 0 0 2.063 1.583 3.667-.75-.001.001 1.5-2.124-1.542-3.333zm-13.417 1.73s-5.563 3.188-7.438 8.188c0 0-1.438 4.438-.813 8.625 0 0 .625 4.75 3.563 7.938a124.37 124.37 0 0 0 3.063 3.104s1.958 2 3.375 1c0 0 2-1.542-.5-4.292 0 0-2.625-3.083-3.667-4.833 0 0-2.042-3.208-1.667-7 0 0 .167-3.709 2.667-7.042 0 0 .417-.875 3.25-2.458 0 0 2.833-1.292 1.917-3.083 0-.002-.542-1.877-3.75-.147zM209.25 848.875s-1.5 2.625 1.188 4c0 0 2.375.938 3.5-1.563 0 0 1.313-2.375-1.75-3.563 0 .001-1.75-.749-2.938 1.126zm-3.542 13.708s-1 6.876 1.667 12.334c0 0 2.125 4.791 5.625 7.458 0 0 2.083 1.501 3.958 2.042 0 0 1.51.521 1.542-1.167 0 0 .125-1.094-1.875-2.75 0 0-2.75-2.625-4.438-4.813 0 0-1.906-2.656-2.25-5.875 0 0-.625-4.656-.344-7.406 0 0 .24-2.323-1.781-2.864.001 0-1.333-.46-2.104 3.041zM459.583 732.25s.833 5.75 4.083 12.25c0 0 2.146 4.75 5.958 8 0 0 .875.563 1.688-.438 0 0 .5-.563-.75-1.688 0 0-3-3.625-5.063-8.063 0 0-2.5-4.688-3.313-10.25 0 0-.25-1.344-1.531-1.375.001.002-1.269-.186-1.072 1.564zm.625-5.792s-1.292.249-1.292 1.708c0 0 .25 1.166 1.417 1.125 0 0 1.375-.124 1.333-1.416.001 0-.083-1.5-1.458-1.417zm-18.02-272.52s-1.646-.313-2.063 1.729c0 0-.25 1.875 1.875 2.25 0 0 1.333.458 2.292-1.625 0 0 .583-2.334-2.104-2.354zm12-3.313l-2.5.656s-1.875.031-1.844 2.281c0 0-.25 2.531 3.719 1.969 0 0 3.656-.344 7.219-4.188 0 0 3.281-3.125 5.156-6.094 0 0 1-1.469-.531-2.25 0 0-1.094-.969-3.375 1.531l-3.969 4.063c0 .001-1.782 1.532-3.875 2.032zm36.229-37.125s4.209-4.583 10.167-7.583c0 0 4.791-2.417 12.208-3.25 0 0 2.375-.271 4.063.458 0 0 1.541.708 1.333 1.563 0 0-.063 1.313-2.813 1.438 0 0-1.906.125-3.531.063 0 0-3.188 0-6.26 1.333 0 0-5.334 2.667-8.678 5.448 0 0-2.947 2.448-3.864 3.052 0 0-1.667 1.521-3 .375 0-.001-1.479-.793.375-2.897zm200.208 20.563s-2.188 1.563-2.875 6.688c0 0-.541 3.083.042 6.208 0 0 .291 4.917 2.666 4.625 0 0 1.209.208 1.167-3 0 0-.124-2.042-.583-4.958 0 0-.666-2.125 1-5.792 0 0 .582-1.354 1.479-2.583 0 0 1.334-1.604.229-2.479 0-.001-1.021-.751-3.125 1.291zm-2.437 22.375s.271 1.458 1.938 1.417c0 0 1 .042 1.438-1.354 0 0 .167-1.688-1.563-1.833-.001-.001-1.897-.001-1.813 1.77zM802.375 732.25s-7.459 7.166-11.042 13.833l-2.958 4.792s-1.458 2.709-2.625 3.042c0 0-.917.584-9.708.875 0 0-7-.084-9 .208 0 0-2.417-.001-2.875 1.833 0 0-.791 2.292 3.667 2.167 0 0 9.249.251 16.083-.208 0 0 5.168-.459 7.459-5.084 0 0 4.155-7.083 6.874-10.771 0 0 3.219-4.563 5.094-6.781 0 0 1.616-1.78 2.407-2.572 0 0 1.438-1.209.25-2.292 0 0-1.23-1.355-3.626.958zm-51.292 21.666s-.917 2.668 2.25 3.209c0 0 2.375.625 3.25-1.875 0 0 .709-2.709-2.333-3.334 0 0-2.209-.834-3.167 2zm-48.333 90.647s-1.313 3.813-1.438 7.563l-.229 4.542s.043 1.709-1.916 2.584l-5.667 3.916s-2.688 1.864-1.656 3.646c0 0 .563 1.844 4.25-.563l6.5-3.969s2.406-1.625 2.719-4.281c0 0 .25-2.604.104-5.5 0 0-.104-3.563.489-6.688 0 0 .491-2.604-.718-3.146 0 0-1.522-.771-2.438 1.896zm-17.344 24s-1.5.156-1.688 1.938c0 0-.25 1.563 1.906 1.75 0 0 1.469.219 1.813-1.906.001-.001.469-1.814-2.031-1.782z"
        fill="#fff" />
    <path
        d="M552 466.5s-.393-.594-.896-1.806-1.135-3.037-1.542-5.447c-.4-2.408-.585-5.382-.457-8.787.136-3.4.628-7.252 1.829-11.294l.982-3.006c.339-1.057.719-2.086 1.122-3.141.818-2.096 1.762-4.223 2.843-6.358 2.185-4.249 4.898-8.589 8.577-12.417 1.758-1.913 3.805-3.72 5.978-5.318.53-.423 1.092-.808 1.667-1.179l1.719-1.128 1.812-1.012.91-.506.959-.425 1.928-.847.241-.105.26-.096c.217-.079.383-.118.576-.177.371-.096.743-.182 1.119-.239 1.495-.259 3.061-.198 4.563.185a10.27 10.27 0 0 1 4.101 2.103c.315.226.584.495.848.768s.551.53.782.825c.444.599.959 1.167 1.307 1.815 1.559 2.494 2.573 5.065 3.53 7.698.921 2.632 1.697 5.307 2.218 8.018 1.078 5.407 1.341 10.922.646 16.167-.749 5.226-2.115 10.06-3.645 14.58-1.567 4.504-3.353 8.676-5.449 12.315-1.05 1.817-2.145 3.515-3.31 5.049l-1.7 2.161-1.66 2.029c-2.187 2.572-4.164 4.753-5.945 6.426-.854.867-1.688 1.58-2.418 2.195l-1.004.86c-.318.253-.636.458-.904.654-1.083.815-2.212.315-2.212.315s-.015-1.295.993-1.971c.247-.184.534-.371.83-.611l.947-.829c.688-.591 1.475-1.275 2.295-2.126 1.699-1.625 3.616-3.782 5.728-6.315a82.42 82.42 0 0 0 1.59-1.983l1.661-2.154c1.085-1.458 2.111-3.084 3.1-4.833 1.975-3.503 3.668-7.567 5.149-11.964 1.432-4.407 2.766-9.176 3.455-14.127.637-4.942.375-10.17-.67-15.327-.504-2.584-1.257-5.142-2.145-7.654-.443-1.257-.948-2.494-1.482-3.714-.529-1.203-1.126-2.446-1.789-3.489-.293-.569-.717-1.017-1.075-1.525-.188-.246-.42-.441-.626-.667a4.09 4.09 0 0 0-.665-.613c-.907-.792-1.979-1.334-3.115-1.635a8.48 8.48 0 0 0-3.531-.166 8.61 8.61 0 0 0-.871.178c-.131.04-.296.079-.396.117-.059.019-.099.029-.217.078l-.224.097-1.788.771-.892.384-.854.469-1.704.933c-.553.337-1.087.705-1.63 1.053s-1.079.705-1.585 1.103c-2.093 1.519-3.996 3.167-5.727 5.021-3.479 3.563-6.132 7.712-8.271 11.804a69.78 69.78 0 0 0-2.8 6.136c-.396 1.011-.776 2.022-1.097 2.998l-.995 2.963c-1.171 3.833-1.671 7.511-1.825 10.772-.164 3.269.065 6.123.261 8.467l.444 5.494.146 1.99zm28.375-37.125s.143.579.22 1.601c.059.513.058 1.131.078 1.846l-.124 2.386c-.068.875-.212 1.812-.392 2.799l-.663 3.09-.923 3.261-1.222 3.29-1.505 3.182-.826 1.519-.929 1.413-.91 1.356-.977 1.226c-.631.798-1.215 1.563-1.891 2.151l-1.83 1.588c-.604.407-1.159.721-1.617.972-.916.501-1.49.696-1.49.696s.277-.572.854-1.412l1.073-1.447 1.34-1.87c.536-.638 1.059-1.373 1.611-2.15l.854-1.189.787-1.316.818-1.355.754-1.439c.546-.948.986-1.971 1.467-2.976.515-.99.868-2.055 1.307-3.064l1.088-3.052.857-2.916.373-1.362.326-1.281 1.058-4.001.434-1.546z"
        fill="#b35779" />
    <g stroke="#b35779" class="B C H">
        <path
            d="M573.333 486.5s-1.208 6.75-12.958 11.25c0 0-17.375 7.833-24.958 20.083 0 0-7.667 12.042-4.292 25.667 0 0 1.875 6.625 8.125 11 0 0 1.75 1.688 3.188-2.875 0 0 2.647-8.875 13.563-16.208 0 0 15.584-10.25 20.75-14.5 0 0 14-9.75 15.166-19.167 0 0 5.083-22-1.917-36m-38-26.5s-17.875-13.625-41.875-8c0 0-16.5 2.875-28.125 18.5 0 0-7.417 10-9.917 19.333 0 0-.458 1.604-2.333 2.542 0 0-7.375 2-8.75 7.25 0 0-2.938 9.563 2.063 21.125 0 0 5.813 14.375 21.063 23.5 0 0 20.688 12.25 46.063 8.375" />
        <path
            d="M499.917 434.75l-29.667-26s-4-2.25-6.167.417c0 0-1.667 1.667 1.333 9.833 0 0 7.5 19.417 15.25 32.5m81.251-33.083s-5.333-19-28.75-23.25c0 0-22.167-4.417-39.917 8.083 0 0-8.084 5.417-13.5 12.75M469 428.417s-6.25 10.083-15.083 14.5c0 0-9.417 6.833-22.667 3.458 0 0-4.813-.938-2.938 7.875 0 0 2.854 12.417 12.521 21.25 0 0 7.583 7.417 19.25 8.167" />
    </g>
    <path fill="#b35779"
        d="M493.667 459.583s-3.75 2.917-7.417 11.75c0 0-3.334 7.916 2.583 12.833 0 0 4.834 3.333 10.834-3.25 0 0 5.832-5.333 6.416-13.917 0 0 .833-9.167-4.25-10.167 0 .001-2.666-1.332-8.166 2.751z" />
    <path fill="#738fb4"
        d="M730.501 442.167c.427-.17.886-.222 1.348-.222.457.021.935.076 1.385.245.912.303 1.76.952 2.313 1.793.151.205.266.425.368.652s.221.45.279.685l.209.701.114.704c.1.474.064.929.096 1.396.013.139.003.488-.017.701-.016.241-.05.474-.084.709-.156.933-.453 1.852-.926 2.707l-.385.626-.459.583c-.343.354-.682.731-1.099 1.001-.394.312-.828.539-1.271.75-.438.225-.906.331-1.362.494l-1.39.252-1.38.08.172-.012c-.782.097-1.407.08-2.104.026l-1.015-.132c-.337-.053-.672-.124-1.002-.226-1.317-.371-2.613-.966-3.693-1.864-1.059-.899-2.004-1.976-2.604-3.2-.359-.591-.59-1.221-.816-1.854-.269-.625-.385-1.272-.539-1.915-.178-.643-.25-1.288-.318-1.934l-.108-.969-.044-.429-.032-.519a18.2 18.2 0 0 1 .283-3.94c.237-1.297.624-2.574 1.159-3.8.565-1.214 1.283-2.363 2.153-3.397.903-1.003 1.906-1.909 3.045-2.641 1.121-.7 2.289-1.282 3.52-1.742s2.515-.793 3.835-.962c1.32-.178 2.679-.12 4.006.079.662.125 1.322.258 1.956.491l.479.155.12.039.158.065.254.12.886.485c1.138.688 2.193 1.503 3.115 2.479s1.704 2.114 2.218 3.382c.521 1.265.773 2.627.801 3.977l.001.006-1.736-.658c1.442-1.434 3.039-2.374 4.82-3.088 1.773-.678 3.685-1.013 5.58-.962.944.025 1.892.124 2.809.331l.691.141.723.233 1.306.526c1.698.773 3.308 1.789 4.683 3.129 1.384 1.318 2.447 3.063 2.939 4.965l.175.684.116.746c.056.48.087.954.091 1.427a15.75 15.75 0 0 1-.202 2.815c-.296 1.856-.902 3.656-1.753 5.322-.843 1.677-2 3.157-3.242 4.528-.666.64-1.291 1.331-2.025 1.885l-1.068.874-1.025.805-4.303 3.187c-2.899 2.065-5.852 4.052-8.872 5.935-1.486.979-3.031 1.863-4.57 2.758-1.547.882-3.053 1.834-4.652 2.624l-4.74 2.47c-1.598.79-3.246 1.479-4.867 2.222-3.232 1.521-6.556 2.791-9.921 3.975-3.364 1.177-6.774 2.231-10.241 3.104-3.468.867-6.992 1.571-10.593 1.901-.9.078-1.8.169-2.714.158-.911.014-1.819.049-2.74-.052l-1.376-.104-.3-.024-.361-.042-.692-.099c-.909-.156-1.81-.331-2.693-.579-3.52-.961-6.985-2.542-9.718-5.141-.709-.617-1.295-1.358-1.899-2.081-.288-.372-.525-.783-.788-1.173l-.385-.594c-.114-.206-.209-.422-.314-.633l-.611-1.275c-.188-.467-.318-.948-.438-1.395-.218-.917-.392-1.843-.45-2.785-.146-1.878.044-3.803.63-5.636.64-1.821 1.698-3.466 3.011-4.857 2.727-2.714 6.289-4.146 9.791-5.081l-.605 1.501c-.87-1.502-1.294-2.952-1.767-4.473l-.518-2.29-.314-2.317c-.136-.771-.098-1.55-.147-2.325-.013-.775-.103-1.554-.023-2.326l.136-2.318.034-.58a8.52 8.52 0 0 1 .046-.566c.046-.407.097-.787.16-1.175.244-1.542.598-3.058 1.063-4.545.473-1.484 1.028-2.948 1.736-4.351.727-1.39 1.516-2.766 2.534-3.99.461-.647 1.06-1.188 1.589-1.781l.901-.793.452-.395c.21-.166.353-.25.535-.375 2.656-1.72 5.574-2.914 8.648-3.609 1.538-.333 3.114-.512 4.698-.532.79.004 1.586.047 2.374.123.781.135 1.581.184 2.344.414l1.155.293c.461.119.779.278 1.155.419.719.3 1.43.609 2.124.955a33.61 33.61 0 0 1 4.046 2.321c1.298.87 2.54 1.855 3.641 3.021 1.1 1.159 2.078 2.492 2.732 4.034l-1.852.758c-1.084-2.491-3.233-4.553-5.642-6.156-1.206-.812-2.483-1.537-3.802-2.18-.656-.328-1.33-.62-2.004-.901-.328-.125-.696-.295-.97-.354l-1.039-.262c-.686-.212-1.406-.247-2.109-.374a24.72 24.72 0 0 0-2.144-.11c-1.435.019-2.869.179-4.281.485-2.811.631-5.566 1.761-7.978 3.326-.129.088-.309.203-.394.272l-.398.351-.8.701c-.47.536-1.007 1.008-1.421 1.596-.918 1.098-1.639 2.359-2.31 3.637-.653 1.293-1.171 2.66-1.614 4.049-.437 1.393-.771 2.824-.998 4.263-.059.356-.107.725-.146 1.067a7.35 7.35 0 0 0-.046.562l-.032.55-.129 2.201c-.077.734.012 1.465.022 2.197.049.729.008 1.47.139 2.189l.292 2.169.48 2.126c.223.685.412 1.389.673 2.054.253.656.553 1.354.859 1.882l.672 1.162-1.277.339c-3.292.875-6.523 2.219-8.849 4.542-1.113 1.19-1.997 2.563-2.541 4.091-.489 1.545-.66 3.197-.533 4.844.05.824.206 1.645.396 2.447.11.407.21.783.353 1.137l.539 1.116c.092.185.173.375.272.556l.339.518c.232.341.436.703.688 1.029.535.631 1.043 1.287 1.676 1.832 2.41 2.305 5.588 3.774 8.861 4.666.82.231 1.659.392 2.493.536l.621.089.298.035.361.031 1.271.094c.842.097 1.703.061 2.562.048.857.013 1.72-.075 2.582-.15 3.447-.315 6.885-.998 10.28-1.848s6.754-1.893 10.069-3.053c3.309-1.164 6.604-2.423 9.778-3.918 1.595-.732 3.215-1.407 4.788-2.185l4.674-2.436c1.576-.777 3.065-1.72 4.592-2.59 1.521-.883 3.047-1.756 4.517-2.725 2.985-1.862 5.906-3.827 8.771-5.867l4.228-3.13 1.062-.833.984-.808c.684-.511 1.246-1.144 1.858-1.726 1.126-1.247 2.17-2.578 2.919-4.072.757-1.484 1.293-3.077 1.554-4.715a13.85 13.85 0 0 0 .18-2.47c-.003-.411-.031-.822-.077-1.22a7.1 7.1 0 0 0-.086-.565l-.155-.602c-.396-1.519-1.229-2.921-2.406-4.042-1.161-1.135-2.582-2.042-4.102-2.732-.382-.167-.767-.329-1.155-.466-.19-.068-.397-.138-.538-.177l-.609-.122c-.809-.185-1.633-.268-2.451-.29-1.643-.044-3.279.245-4.811.827-1.504.583-3.001 1.512-4.07 2.576l-1.544 1.537-.192-2.195v-.005c-.067-1.103-.309-2.176-.758-3.167a9.35 9.35 0 0 0-1.865-2.692c-.779-.793-1.695-1.473-2.667-2.034-.244-.137-.491-.267-.735-.384l-.164-.074c-.01-.004-.119-.053-.054-.021l-.1-.029-.398-.118c-.524-.184-1.069-.278-1.615-.372-1.096-.137-2.214-.172-3.325.003-1.109.159-2.212.437-3.28.841a17.12 17.12 0 0 0-3.06 1.523c-.926.598-1.753 1.354-2.489 2.17-.707.849-1.295 1.792-1.767 2.803-.442 1.025-.77 2.108-.971 3.225s-.282 2.266-.237 3.384l.024.399.05.486.094.859c.053.576.108 1.15.258 1.694.127.55.216 1.119.436 1.625.182.525.362 1.052.646 1.514.465.993 1.184 1.793 1.967 2.491.802.688 1.781 1.146 2.811 1.453 1.011.289 2.202.423 3.164.333l.09-.008.082-.003 1.124-.042c.363-.048.72-.115 1.08-.171.328-.122.69-.183.997-.34.314-.144.626-.292.893-.501.297-.172.519-.433.765-.664l.325-.394.28-.436c.349-.601.592-1.287.727-1.999.029-.177.061-.358.075-.533.018-.203.028-.272.022-.551-.023-.366.022-.755-.053-1.104l-.072-.536-.142-.503c-.034-.175-.117-.321-.183-.477a2.01 2.01 0 0 0-.221-.451c-.152-.297-.347-.567-.563-.829a5.41 5.41 0 0 0-.751-.746c-.568-.483-1.257-.888-2.068-1.283z" />
    <g class="B C H">
        <path stroke="#c78d64"
            d="M781 742.833s14.5-19.083 26.875-28.208c0 0 7.875-5.75 11.75-4.375 0 0 8.5 2.375 10.375 20.5 0 0 1.375 14.875 1.625 21.75 0 0 25.125 11.875 39.5 27.25 0 0 2.876 3.334 1.792 7.667 0 0-1 2.917-5.75 6.5 0 0-12.292 10.208-27.167 13.958 0 0 0 24.625-7.375 39.25 0 0-3.375 8-8.5 9.25 0 0-3 1.375-9.75-4.625 0 0-14.959-13.5-23.792-24.833 0 0-22.208 9.833-42.833 10.708 0 0-4.583.043-7.583-3.124 0 0-2.834-3.5-1.917-11 0 0 3.375-18.126 12.625-33.626 0 0-11.625-20.29-15.458-34.874 0 0-1.166-3.75-.333-6 0 0 .916-4.584 8.25-6 0 0 18-1.584 37.666-.168z" />
        <path stroke="#a8624b"
            d="M724.5 844.25s-10.125-11.125-14.75-15.625c0 0-2.625-2.375-6.375-2 0 0-2 .375-4.125 5.875 0 0-4.5 14.375-5.25 22.5l-16.875 11.75s-3.625 3-3 6.25c0 0 .625 2.875 5.125 6 0 0 8.667 5.833 13.417 8.5 0 0 2.582 13.751 5.166 19.751 0 0 2.416 5.917 6.5 6.25 0 0 4.333.584 9-5.5 0 0 7.168-8.668 9.834-13.584 0 0 10.25 3.667 22.167 4 0 0 4.917.416 7.667-2.167 0 0 2.25-2.501-.25-9.167 0 0-2.834-8.166-8.084-16.083 0 0 10.332-14.667 8.416-20.167" />
        <g stroke="#b35779">
            <path
                d="M468 703.5s-13.875 9.625-13 23.5c0 0 .875 15.125 10.625 26.75 0 0 10.626 12.834 21.292 15.917 0 0 7.5 2.583 13.583-2.167 0 0 15.167-11.583 21.75-23.5 0 0 10.417-15 2.417-28.833 0 0-7.416-14-26.333-15.083 0-.001-21.501-2.584-30.334 3.416z" />
            <path
                d="M466.844 704.344s-5.261 6.49 1.323 10.073c0 0 3.615 1.802 7.74-.229 0 0-.219 2.813 3.01 3.979 0 0 3.333 1.666 7.667-1.917 0 0 1.584 6.167 8.834 4.917 0 0 6.166-.583 6.583-7 0 0 6.584 4.583 13.917.167 0 0 4.875-3.125 1.625-7.125m-48.293 16.479s-3.313.813-2.625 5.375c0 0 .688 4.125 4.188 3.188 0 0 2.5-.313 2.313-4.313-.001 0 .312-4.313-3.876-4.25zm19.563 5.125s-3.813 1.875-2.188 7.063c0 0 .688 1.688 2.75 1.938 0 0 2.813.625 4.563-3.875 0-.001 1.812-7.064-5.125-5.126zm20.812.312s-.792 3.791 2.958 4.625c0 0 2.958.584 3.75-3.833 0 0 1.166-4.499-2.625-5.458 0 0-3.125-.709-4.083 4.666zm-31.583 16.542s-3.208 2.791-.5 7.208c0 0 2.167 3.584 4.833 2.167 0 0 4.249-1.667 1.583-6.917 0 0-2.208-4.624-5.916-2.458zm24.041-1.417s-3.75-.75-5.125 4c0 0-1.916 5.042 2.209 7 0 0 3.208 1.541 5.083-3.917 0 0 2.208-5.458-2.167-7.083z" />
        </g>
        <path stroke="#896eb1"
            d="M381 640.5s-15.875-10-31.625-7.125c0 0-16.875 3.875-15.25 23 0 0 .875 20.25 21.75 32.625 0 0 23.125 15 46.875 15.375 0 0 6.875.5 9.875-3 0 0 16.75-15.625 23.75-35.375 0 0 7.625-20.25 1.25-35.125 0 0-5.458-16.125-19.542-20.625 0 0-19.75-5.167-29.5 11.167 0 0-5.5 8.583-7.583 19.083z" />
        <path
            d="M142 691.75s-4.5-8-1.625-17.125c0 0 3.375-13.041 16.875-14.958 0 0 13.584-2.167 19.667 5.667 0 0 7.25 8.25 6.333 17.417 0 0-.75 11.333-9.167 16.083 0 0-5.417 3.667-11.833 3.167 0 0 3 6.375 1.313 11.813 0 0-2.375 7.313-15.438 8.25 0 0-11.688 1.563-19.063-4.938 0 0-7.25-6-7.5-14.563 0 0-.625-6.563 2.063-12.125 0 0 1.188-2.563 4.125-1.063 0 0 5 2.438 12.375 2.375 0 0 1.125.188 1.875 0zm41.583-8.917s2.104 1.417 4.542 1.979c0 0 3 .313 3 3.313 0 0 .063 7.063-7.375 7.5 0 0-3 .125-4.813-.313"
            stroke="#c78d64" />
    </g>
    <path fill="#c78d64"
        d="M164.375 673.563s-1.813 3.75-.625 10.688c0 0 .813 4.938 5.688 5.188 0 0 4.75-.125 4.688-8.688 0 0 .875-10.375-4.438-11.125 0-.001-3.375-.501-5.313 3.937z" />
    <path stroke="#6c6f3d"
        d="M203.833 844.001s-6.458 8.749-7.083 21.624c0 0-1.875 16.75 11 27.625 0 0 11.5 9.249 27.75 14.583 0 0 17.5 6.833 37.75 5.25 0 0 18.167-1.584 24.25-15 0 0 7-13.167 6.667-22.75 0 0 11.583-11.583 11.833-21.916 0 0 1.688-10.979-10.25-22.479 0 0-15.083-12.937-33.75 1.896 0 0-5.5-4.335-15.417-5.501 0 0-3.333-18.958-24.958-21.021 0 0-17.625-2.146-25.208 18.104 0 .001-3.167 7.919-2.584 19.585z"
        class="B C H" />
    <path
        d="M249.583 846.667l.181 1.241.165 1.308.23 1.587.212.859.321.869c.257.574.565 1.157.995 1.689.218.263.411.555.694.782.267.239.507.511.834.705.59.457 1.29.788 2 1.143.621.232 1.427.404 2.146.468a8.28 8.28 0 0 0 2.114-.131c.657-.145 1.271-.339 1.82-.608.563-.244 1.042-.59 1.51-.891.408-.383.851-.669 1.202-1.007l1.051-.807c.604-.472 1.108-.708 1.108-.708s.077.511-.069 1.346c-.043.432-.239.895-.492 1.424-.226.547-.689 1.038-1.171 1.589l-.876.76c-.306.264-.692.446-1.057.68-.371.226-.807.35-1.226.529-.432.139-.891.235-1.351.323-.933.125-1.895.12-2.845-.004-.963-.142-1.851-.354-2.825-.771-.831-.413-1.693-.819-2.452-1.399-.403-.246-.744-.589-1.096-.904-.366-.299-.65-.682-.947-1.039-.579-.729-.98-1.555-1.265-2.354-.133-.403-.206-.81-.301-1.193l-.111-1.127c-.021-.721.029-1.374.181-1.932.136-.558.329-1.021.53-1.382.394-.728.79-1.045.79-1.045zm-24.166-.166s-8.167-5.001-3-16.584c0 0 4.5-11.916 14.583-9.333 0 0 10.417 4.333 3.5 17.75 0 0-5.25 12.834-15.083 8.167zm62.033 21.167s9.427 1.688 13.259-10.402c0 0 4.552-11.896-4.701-16.664 0 0-10.665-3.682-14.407 10.943 0 0-4.601 13.08 5.849 16.123z"
        fill="#6c6f3d" />
    <path fill="#fff"
        d="M542.25 741.25s4.25 24.5 13 42c0 0 10 20.75 23.5 31 0 0 26.083 11.75 53.75 5.917 0 0 53.833-12.499 73.833-29.833 0 0 14.667-12.668 15.667-19.334l-7-23.666s-3.667-12.166 13.833-14l-8.583-56.084-23.5-28-38.5-30.75-38 4-39.5 16.5-21.5 26-12 31.75-6.5 31.5 1.5 13z" />
    <path
        d="M542.667 747s11.833-11 24.083-18c0 0-4.25-25.75-1.25-36.25s-.5 1-.5 1 8-38.5 17.75-48c0 0-18.25 4.75-25.25 16.5 0 0-15.5 30.5-15.75 59.5 0 0-1.666 17.25.917 25.25zM698.5 692s13.75 1 26.75 7.25c0 0-9.25-30.5-19.5-42.5 0 0-22.25-36.75-57.25-34 0 0-4.75 2.5-1.5 4.75 0 0 20 11.75 24.75 18.75s0 0 0 0S697 677.5 698.5 692z"
        fill="#d398bc" />
    <path fill="#eb6b8a"
        d="M565.333 726s10 27.833 21.167 41.25 0 0 0 0 14.167 16.417 32.167 24.417 0 0 0 0 26.332 7.667 44.666-6c0 0 28.834-16.417 31.917-33.542s0 0 0 0 8.75-33.458 4.75-45.792c0 0-.001-17.667-4.667-22.667s0 0 0 0-51.666-14-78.333-5.333c0 0-51.667 42.333-51.667 47.667z" />
    <path fill="#a34b77"
        d="M567 728.25s21.25-13.75 40.5-23.25c0 0 30-11.5 64-15.75 0 0 14.25-3 26.25 1.25L682.5 660l-19-21.5-13-11.5-19-4.5-35.25 8.25-14.75 14.5-2.5 9.5-8.5 16-5.5 20.75-.25 12.75s1 22 2.25 24" />
    <path fill="#652766"
        d="M630 764.25s-22.833-3.75-31.833-32.583c0 0-8.5-24.167-4.5-43.167 0 0 4.832-27.667 20.166-33.833 0 0 22.917-10 38.084 3.75 0 0 14.333 11.083 19.084 25.583 0 0 6.833 19 4.666 37.5 0 0-1.166 24.5-13.5 35.667 0 0-13.417 13.583-32.167 7.083z" />
    <path
        d="M621.25 791.5s-10.875-10.5-6.875-28.875c0 0 3.375-13.375 20.125-22.125 0 0 12.625-7.875 31.75-4.5 0 0 9.625 1.875 16.25 12.625 0 0 5.25 8.25 4.25 17.125L673.5 780.5l-11.125 5.5-18.75 5.875-15.25-.25-7.125-.125z"
        class="G" />
    <path
        d="M622.667 679.5s-11.501 12-4.834 36.667c0 0 2 12.667 13.167 23.167 0 0 9.001 6.666 18.167 1.833 0 0 10-4.833 9.833-21.5 0 0 .125-19.542-4.75-29.292 0 0-6.375-17.25-18.75-17.75 0 0-7.666-.5-12.833 6.875zM670.5 674s-7.5 7.5-4 17c0 0 2.375 5.625 9.25 4.5 0 0 6.125-1.625 8.375-9.375 0 0 3.125-9.375-1-13.125 0 0-5.625-5-12.625 1z"
        fill="#fff" />
    <path stroke="#652766" stroke-width="5"
        d="M647 628.667c27.667 10 43.875 44.458 43.875 44.458 8.875 16.625 8.626 41.542 8.626 41.542.667 23.833-4.251 37.458-4.251 37.458-7.75 21.375-25.875 31.75-25.875 31.75C645 798.25 620.25 791.75 620.25 791.75c-19.625-4.75-33.75-24.5-33.75-24.5-16.875-19.375-20.833-45.917-20.833-45.917-8.167-45.5 21.833-78.583 21.833-78.583s18.666-15.25 29.833-15.417"
        class="B C" />
    <path
        d="M463.5 860.167s1.75 7.583 9 14.083c0 0 19 13.25 29.5 9.75 0 0 15.5-.75 24.25-18.25 0 0 11.75-14.75 4.25-22 0 0-59.5 7.334-67 16.417zm-13 80.167s-6.833 15.333-3.667 23.833c0 0 7.333 14.501 21.833 21.834 0 0 20.167 10.5 39.833 2.333 0 0 21.833-3.167 37.833-27.5 0 0 13.334-17.167 13.667-24.5 0 0-11-9.167-25.5-12 0 0-16.501-2.499-29.167 4.167.001 0-39.665 17.5-54.832 11.833zm67.875 240.416s-.813-3.313 2.5-10.125c0 0 3.438-6.438 12.375-8 0 0 10.625-1.438 21.438 1.438 0 0 9.688 2.813 15.313 7.063 0 0 5.625 5.438 6.75 9.25s0 0 0 0l-.688 3.313-2.375 8.625-9.938 5.875-14.188.563-18.25-5.938-9.75-7-3.187-5.064"
        fill="#ffb6cc" />
    <path fill="#de96b3" d="M758.75 556s22-39.5 19-65c0 0-22.25 23.5-25.75 24.5 0 0 7.5 23.5 6.75 40.5z" />
    <path fill="#ffd3e0"
        d="M466.833 851.333s-1.833.501-3.5 4.834c0 0-1.667 2 .167 4 0 0 5.167 4.667 33.667-1.5 0 0 34.332-5 34.666-13 0 0-8.001-10.166-35-7 0 0-19.333 2.666-30 12.666z" />
    <path
        d="M448 941.75s7.75 12 42.75 4c0 0 14.75-5.416 30.25-18.583 0 0 1.334-1.334 8.667 2.333 0 0 8.666 4.001 18.666 3.167 0 0 5.001 1.499 6.334 4.166 0 0 1.834 2.666 2 7.5l8-16.166 1.833-4.5-11.5-1-16.833-.667L521 917.333l-9.167-2-6.833 5-8.167 8.5-9.666 5.5-18.333 3.834-14.667-2.834-2.667-.833-3.5 7.25zm70.25 237.917s-.75 9.75 8.75 14.833c0 0 10.667 6.416 23 7.833 0 0 12.833 2.75 19-1 0 0 6.834-3.666 8.167-9.083 0 0 1.334-6.417.5-9.417 0 0-.916-3.332-2-4.666 0 0-.229 8.083-2.042 12.396 0 0-2.563 4.875-8.688 5.875 0 0-7.021 1.354-14.354-.062 0 0-11.376-1.98-16.959-5.063 0 0-6.583-2.771-9.438-5.313.002 0-5.769-4.833-5.936-6.333z"
        fill="#e083a6" />
    <path
        d="M582.667 302.667s1.573-2.45 4.989-6.565l6.513-7.345c2.644-2.809 5.846-5.872 9.341-9.389l11.588-11.619 6.43-6.658.899-.932c.29-.292.559-.582.872-.878l1.87-1.787 3.904-3.437c5.376-4.534 11.499-8.806 18.138-13.012 1.672-1.03 3.426-1.972 5.169-2.981l2.642-1.503c.884-.508 1.772-1.021 2.711-1.45l5.625-2.741 2.86-1.393c.259-.121.437-.225.764-.359l.753-.309 1.517-.6c8.061-3.111 16.646-5.699 25.714-7.753 4.543-.973 9.188-1.888 13.971-2.464 2.379-.356 4.806-.528 7.242-.752 1.216-.132 2.452-.126 3.684-.196 1.235-.032 2.47-.147 3.718-.111l3.752.042 1.821.027a61.18 61.18 0 0 1 1.924.081 110.07 110.07 0 0 1 7.582.683 135.29 135.29 0 0 1 15.199 2.759c10.104 2.515 20.247 6.161 29.685 11.653 1.168.702 2.394 1.315 3.521 2.097l3.423 2.296c1.153.736 2.288 1.615 3.351 2.453l3.196 2.56c4.229 3.452 8.35 7.077 12.412 10.815 8.088 7.514 15.892 15.539 23.198 24.136s14.082 17.777 20.038 27.601c5.767 9.867 11.059 19.939 16.024 30.23 4.923 10.3 9.476 20.796 13.34 31.543l2.706 8.127c.806 2.735 1.697 5.47 2.376 8.209l1.051 4.142.963 4.126c.666 2.744 1.241 5.499 1.811 8.249 4.607 21.986 7.665 43.914 9.103 65.262.776 10.741.667 21.263.489 31.558-.304 10.294-.904 20.362-1.937 30.126l-.853 7.266-.422 3.594-.214 1.787-.302 1.77-2.378 13.908c-1.924 9.092-4.038 17.667-6.159 25.957-2.134 8.269-4.327 16.16-6.62 23.617-2.301 7.456-4.673 14.486-7.351 20.985-5.407 12.721-10.325 23.834-14.611 32.802l-2.992 6.397c-.912 2.02-1.921 3.845-2.777 5.579l-4.453 8.766-3.708 7.297-3.533-1.875 3.624-7.274 4.354-8.735c.837-1.73 1.823-3.543 2.715-5.562l2.926-6.384c4.193-8.99 8.98-19.954 14.346-32.708 2.565-6.302 4.876-13.24 7.116-20.616 2.233-7.381 4.376-15.22 6.459-23.441 2.063-8.207 4.153-16.863 5.989-25.731l2.276-13.683.29-1.74.202-1.762.4-3.544.809-7.166c.96-9.634 1.555-19.579 1.852-29.754.171-10.17.271-20.601-.495-31.084-1.431-21.111-4.474-42.839-9.042-64.578l-1.792-8.146-.952-4.069-1.023-4.028c-.675-2.72-1.537-5.343-2.324-8.017-.807-2.662-1.77-5.288-2.647-7.939-3.792-10.527-8.284-20.876-13.152-31.047-4.9-10.145-10.182-20.175-15.827-29.823-5.754-9.52-12.347-18.55-19.477-26.996-7.132-8.453-14.776-16.372-22.703-23.788-3.981-3.688-8.021-7.269-12.151-10.663l-3.108-2.508c-1.049-.831-2.034-1.604-3.141-2.314l-3.235-2.188c-1.064-.747-2.233-1.331-3.34-2.003-8.953-5.258-18.684-8.802-28.419-11.262-4.883-1.201-9.788-2.093-14.66-2.714a105.65 105.65 0 0 0-7.27-.681l-1.771-.082-1.866-.035-3.585-.053c-1.19-.041-2.382.069-3.566.095-1.186.063-2.368.051-3.543.175-2.353.209-4.69.364-7 .703-4.629.54-9.153 1.415-13.582 2.347-8.836 1.968-17.279 4.481-25.109 7.474l-1.445.565-.715.29c-.163.063-.448.213-.667.314l-2.791 1.349-5.494 2.651c-.917.414-1.784.911-2.646 1.404l-2.579 1.456c-1.701.977-3.416 1.888-5.049 2.886-6.478 4.074-12.46 8.215-17.678 12.586l-3.767 3.292-1.734 1.642c-.287.267-.576.577-.861.861l-.796.815-6.563 6.751-11.678 11.628-9.528 9.227c-2.854 2.6-5.364 4.728-7.469 6.38-4.199 3.324-6.687 4.836-6.687 4.836z"
        class="D" />
    <path
        d="M630.75 255.167s-24.5 7.083-59.5 9.333c0 0-38.25 1.667-56.583 10 0 0-41.167 18-56.417 49 0 0-17 32.5-22.25 68 0 0-4.167 23.333-5.333 43.333m23.083-6.166s-4.75 8.833-16.917 7.667c0 0-8.5-.333-14.667-3.5 0 0-4.5-2.833-4.833 4.833 0 0-3 35.333 27.333 55.667 0 0 4.833 20.667 18 31.833 0 0 16.334 17.666 57.667 21.833 0 0 7.499 14.334 19.166 19.667 0 0 7.334 3.833 8.667-4.833 0 0 2.166-10.333 17.833-21.5 0 0 20.334-12.333 28.667-23.333 0 0 16.166-21.5 3.166-46.833 0 0 11.917-23.167 7.542-43.042 0 0-3-20.5-17.75-29.5 0 0-8.875-5.75-27 4.625 0 0-15.625-24.083-52.625-17.25 0 0-17.5 2.5-33.667 15.833 0 0-9.584-6.917-17.667-5.833 0 0-4.833 1.084-4.75 10.167 0 0 .667 10.583 1.5 17.667.002-.002.418 3.332.335 5.832z"
        class="B C E F" />
    <g class="D">
        <path
            d="M430.991 478.36l-.199 1.845-.807 5.31-2.021 8.464c-.439 1.662-1.166 3.408-1.868 5.279l-2.399 5.598-5.604 13.07-3.194 7.415c-1.059 2.391-1.877 5.116-2.639 7.917-1.517 5.625-2.5 11.802-2.894 18.333-.376 6.533-.1 13.453 1.166 20.509l1.101 5.369c.375 1.659.935 3.401 1.581 5.095 1.311 3.4 3.018 6.746 5.13 9.893 2.084 3.168 4.608 6.112 7.429 8.82 2.854 2.677 6.052 5.076 9.531 7.126 3.477 2.056 7.238 3.75 11.184 5.101 1.976.667 3.99 1.274 6.052 1.765l.771.194.386.097c.138.033.028.012.114.027l.203.038 1.572.279 3.223.506c8.654 1.272 17.607 2.068 26.715 2.486 18.232.817 37.124-.138 56.029-3.229 18.884-3.246 38.013-7.633 56.676-13.235 4.682-1.369 9.291-2.937 13.907-4.471 4.563-1.669 9.145-3.283 13.594-5.17l3.358-1.363 3.291-1.489 3.284-1.491 1.639-.748 1.593-.826 6.42-3.331 6.347-3.428c16.853-9.296 33.128-19.059 48.462-29.103 15.308-10.077 29.773-20.347 42.673-31.042l9.487-8.032c3.071-2.661 6.076-5.321 8.971-8.005 5.805-5.349 11.3-10.65 16.427-15.885 10.291-10.434 19.235-20.471 26.83-29.631l5.459-6.689 4.894-6.368 2.304-2.999 2.11-2.939 3.929-5.478c1.273-1.715 2.34-3.43 3.402-5.005 1.046-1.585 2.052-3.055 3.016-4.406l5.008-6.805c2.856-3.625 4.705-5.397 4.705-5.397s-.681 2.431-2.567 6.69c-.972 2.11-2.142 4.746-3.934 7.583-.872 1.433-1.84 2.955-2.899 4.561-1.068 1.6-2.144 3.342-3.423 5.081l-3.951 5.557-2.123 2.982-2.316 3.04-4.92 6.456-5.486 6.779c-7.632 9.282-16.616 19.446-26.956 30.015-5.151 5.302-10.674 10.673-16.516 16.101-2.913 2.723-5.94 5.425-9.051 8.141l-9.518 8.125c-13.031 10.893-27.577 21.304-42.956 31.52-15.408 10.181-31.727 20.059-48.667 29.494l-6.412 3.497-6.498 3.404-1.644.859-1.68.775-3.365 1.545-3.372 1.541-3.431 1.394c-4.555 1.926-9.214 3.565-13.859 5.26l-14.11 4.527c-18.937 5.667-38.141 10.062-57.336 13.349-19.234 3.135-38.518 4.097-57.043 3.253-9.27-.432-18.361-1.244-27.228-2.553-1.108-.156-2.216-.345-3.32-.523l-1.674-.298-.202-.039c-.049-.007-.292-.06-.287-.063l-.412-.104-.823-.208c-2.197-.525-4.356-1.174-6.477-1.894a64.16 64.16 0 0 1-12.072-5.569c-15.26-8.901-24.947-24.587-26.859-39.715-1.295-7.448-1.548-14.724-1.12-21.575.448-6.854 1.51-13.305 3.136-19.22.823-2.959 1.682-5.796 2.894-8.514l3.232-7.399 5.715-13.022 2.449-5.576c.647-1.705 1.328-3.265 1.753-4.829.99-3.06 1.527-5.793 1.983-7.988a95.62 95.62 0 0 0 .816-5.065l.203-1.735 3.978.389z" />
        <path
            d="M746 579.667l.446-1.023 1.311-2.829 2.116-4.31 2.808-5.516 3.413-6.446 3.649-7.266 3.607-7.9 1.702-4.123 1.657-4.175 1.537-4.218 1.438-4.209 2.471-8.279 1.075-3.982c.382-1.295.565-2.601.848-3.851l.761-3.656.356-1.741.239-1.691.875-6.035.364-4.679.325-4.086 4 .029-.088 4.258-.168 4.892-.707 6.3-.204 1.767-.32 1.815-.726 3.804-.832 4.002-1.061 4.131c-.679 2.819-1.639 5.648-2.572 8.537-.863 2.915-2.068 5.752-3.151 8.633l-1.776 4.252-1.82 4.191-1.958 4.045-1.971 3.916-3.968 7.281-3.856 6.346-3.675 5.097-1.663 2.033-1.472 1.68c-1.805 2.004-3.01 3.006-3.01 3.006z" />
    </g>
    <path d="M758.25 560.5s-.25-30-5.5-45.75" class="B C E F" />
    <path
        d="M333 532.667a25.79 25.79 0 0 1-3.94-.699c-1.302-.297-2.566-.696-3.829-1.112l-3.714-1.427-3.597-1.695-3.476-1.933-3.362-2.127-3.275-2.26c-1.104-.737-2.14-1.57-3.194-2.376l-3.112-2.486-3.03-2.591-2.886-2.756-1.43-1.391-1.357-1.465-2.695-2.949-2.519-3.106-1.243-1.567-1.148-1.639-2.295-3.282.088.126c-2.944-4.044-5.525-8.135-8.062-12.33l-3.64-6.356-3.433-6.467-3.233-6.568-3.036-6.663-2.797-6.769c-.936-2.255-1.709-4.575-2.571-6.859l-1.247-3.445-1.11-3.493-1.11-3.493c-.377-1.163-.747-2.327-1.04-3.515l-1.885-7.089c-.339-1.175-.574-2.376-.827-3.573l-.757-3.591c-1.132-4.765-1.692-9.639-2.471-14.473-.329-2.426-.472-4.877-.716-7.314l-.33-3.661-.083-.915a23.37 23.37 0 0 1-.064-.874l-.092-1.887c-.185-4.944-.064-9.847.243-14.746.271-4.9.873-9.771 1.543-14.629l1.247-7.252 1.568-7.194 1.886-7.122 2.223-7.029 2.567-6.918 2.943-6.772c1.042-2.23 2.21-4.402 3.311-6.606l.803-1.581.871-1.649 1.789-3.226c2.442-4.262 5.05-8.433 7.972-12.443 2.925-4.003 6.116-7.894 10.299-11.179l-.143.116a18.25 18.25 0 0 1 1.647-1.213c.534-.356 1.079-.683 1.632-.989 1.103-.623 2.252-1.143 3.422-1.612a27.12 27.12 0 0 1 7.36-1.706c2.525-.281 5.068-.017 7.543.404 2.449.544 4.86 1.286 7.071 2.386l1.667.809c.56.275 1.021.557 1.55.854 1.035.582 2.017 1.177 3.021 1.767l5.906 3.659c3.91 2.476 7.729 5.08 11.51 7.74 3.766 2.68 7.491 5.418 11.125 8.275 1.843 1.395 3.633 2.858 5.415 4.332s3.593 2.911 5.315 4.457l5.214 4.578 5.063 4.752c1.714 1.555 3.279 3.27 4.92 4.902 1.621 1.654 3.272 3.278 4.795 5.028l4.658 5.163 4.423 5.373 2.198 2.698 2.062 2.809 2.061 2.809 1.03 1.405.515.702.129.176.104.147.058.09.233.361c4.969 7.788 9.691 15.661 14.274 23.649l6.708 12.071 3.228 6.109 3.118 6.172 2.995 6.239 2.853 6.315c.926 2.118 1.783 4.272 2.677 6.406l2.449 6.517-3.77 1.338-2.458-6.329-2.694-6.253-2.876-6.186-3.023-6.125-3.139-6.074-3.233-6.03-6.726-11.927c-4.59-7.887-9.35-15.712-14.292-23.352l-.235-.36-.059-.09c.07.104.001.004.008.017l-.031-.042-.126-.17-.506-.68-1.012-1.361-2.023-2.723-2.022-2.723-2.162-2.619-4.348-5.217-4.586-5.019c-1.497-1.701-3.126-3.282-4.723-4.893-1.619-1.589-3.157-3.257-4.85-4.772l-4.978-4.645-5.123-4.49c-1.69-1.516-3.469-2.932-5.224-4.374s-3.512-2.884-5.326-4.253c-3.575-2.806-7.241-5.497-10.946-8.129-3.719-2.612-7.478-5.172-11.316-7.597-1.908-1.233-3.848-2.408-5.786-3.579l-2.915-1.703c-.469-.264-.99-.578-1.46-.804l-1.428-.688c-1.893-.949-3.902-1.545-5.918-2.003-2.032-.332-4.095-.564-6.139-.324-2.04.188-4.063.643-5.987 1.391-.955.387-1.898.811-2.791 1.318a18.15 18.15 0 0 0-1.307.792 14.65 14.65 0 0 0-1.125.816l-.125.101-.019.015c-3.438 2.699-6.496 6.326-9.247 10.127-2.772 3.808-5.298 7.85-7.66 11.979l-1.726 3.118-.821 1.558-.839 1.652-3.183 6.363-2.834 6.533-2.474 6.684c-.767 2.249-1.434 4.533-2.165 6.795-.687 2.276-1.235 4.595-1.861 6.89-.577 2.308-1.032 4.647-1.556 6.97l-1.246 7.037c-.674 4.716-1.285 9.449-1.57 14.206-.322 4.749-.461 9.525-.308 14.247.012.598.047 1.162.075 1.736l.064.935.076.891.305 3.564c.227 2.374.351 4.758.661 7.124.74 4.715 1.255 9.468 2.341 14.126l.722 3.51c.241 1.17.462 2.344.79 3.495l1.808 6.939c.28 1.163.637 2.304 1 3.443l1.07 3.424 1.069 3.425c.376 1.135.805 2.253 1.205 3.38.834 2.243 1.579 4.52 2.485 6.735l2.71 6.651 2.947 6.551c.988 2.181 2.098 4.305 3.14 6.461 1.047 2.155 2.229 4.238 3.336 6.362 1.141 2.105 2.35 4.171 3.538 6.249 2.444 4.093 5.016 8.197 7.746 11.986l.01.014.078.112 2.169 3.131 1.083 1.566c.366.519.787.997 1.178 1.498l2.386 2.974c.823.969 1.71 1.884 2.562 2.829l1.29 1.408c.435.464.91.891 1.363 1.338l2.75 2.655 2.896 2.5c.947.856 1.973 1.617 2.979 2.404 1.01.78 2.001 1.587 3.061 2.302l3.144 2.192 3.222 2.079 3.265 2.019 6.565 4.051 3.309 2.064 3.338 2.13z"
        class="D" />
    <path
        d="M302.625 514.625S260.75 499.5 214.75 509c0 0-33.75 6.417-59.75 30.167 0 0-10.625 8.333 8 42.208 0 0 14.5 24.625 38.75 42.375 0 0 20 17.25 59.75 28.25 0 0 21.875 6.125 55.125 3.375"
        class="B C E F" />
    <path
        d="M93 626c-.614-1.809-.98-3.614-1.267-5.418-.272-1.804-.433-3.605-.515-5.406l-.043-5.397.035-5.396.138-21.585.286-43.17.002.162c-.18-4.988.077-9.752.505-14.598.426-4.824 1.204-9.611 2.139-14.367.55-2.363 1.008-4.747 1.706-7.078l.978-3.512 1.159-3.462c.711-2.33 1.72-4.56 2.609-6.831.423-1.145 1.006-2.226 1.526-3.332l1.599-3.303c.597-1.07 1.229-2.122 1.843-3.183.64-1.046 1.189-2.146 1.907-3.146l2.117-3.021 1.061-1.509.229-.326.285-.383.563-.737c2.996-3.854 6.195-7.456 9.515-10.963 6.667-6.974 13.877-13.428 21.626-19.199 7.755-5.75 16.016-10.885 24.82-14.966 4.396-2.044 8.907-3.862 13.533-5.354 2.327-.701 4.646-1.431 7.014-1.988l1.768-.446.221-.056.055-.014.208-.043.11-.018.445-.07.912-.136 3.594-.474c4.783-.58 9.578-.974 14.387-1.197 4.807-.242 9.633-.252 14.461-.05 4.828.147 9.662.718 14.462 1.518 4.796.885 9.546 2.208 14.132 4.117l-1.582 3.674c-4.236-1.667-8.7-2.838-13.273-3.597-4.591-.662-9.226-1.182-13.909-1.274a152.66 152.66 0 0 0-14.057.191 189.66 189.66 0 0 0-14.025 1.31 141.45 141.45 0 0 0-3.472.493l-.851.136-.435.073-.11.019c-.052.009.253-.05.099-.018l-.053.014-.21.056-1.686.444c-2.257.553-4.469 1.277-6.688 1.968a127.11 127.11 0 0 0-12.955 5.199c-8.456 3.931-16.431 8.899-23.938 14.479-7.5 5.6-14.505 11.884-20.971 18.664-3.213 3.401-6.331 6.925-9.167 10.584l-.519.681-.247.332-.286.403-.985 1.412-1.975 2.821c-.671.932-1.182 1.974-1.782 2.954l-1.73 2.989-1.523 3.11c-.496 1.042-1.056 2.054-1.461 3.142-.852 2.152-1.826 4.255-2.514 6.477l-1.125 3.294-.953 3.354c-.682 2.224-1.131 4.514-1.674 6.778-.922 4.567-1.7 9.175-2.136 13.826-.44 4.621-.707 9.374-.568 13.893l.003.117-.001.045-.714 43.163-.362 21.582-.09 5.396c-.036 1.798-.036 3.597-.168 5.394-.124 1.797-.326 3.592-.64 5.386-.329 1.793-.737 3.585-1.392 5.373z"
        class="D" />
    <g class="B C E F">
        <path
            d="M93.75 560L65 623.25s-21.25 44-28 66c0 0-15.333 44.751-9.667 78.084 0 0 6.333 37 40 78.333L111.5 898.25s22.75 26.5 28.5 48.5c0 0 11.333 39.417 20.167 50.917 0 0 13.5 21.333 40.833 20.333 0 0 29.667-1.166 58.667-26.666 0 0 26.083-24.334 34.333-46.584 0 0 12.75-32.5 15.25-46.75" />
        <path
            d="M260.75 817s8.25 2 11 4c0 0 9.417-5.999 28.75-2.833 0 0 16.5 1.583 23.333 19.833 0 0 6.167 14.001.667 32 0 0-2.833 8.501-12.5 14.167 0 0-.333 23.5-19.833 35 0 0-24.417 14.083-54.5 3.167 0 0-28.167-9.499-41.167-21.833 0 0-15.625-11.501-12.125-32.126 0 0 .958-12.376 8.458-25.542 0 0-5.833-18.083 7.417-34.458 0 0 7.75-11.875 25.625-13.25 0 0 16.875-2 26.25 7.125 0 0 7.125 6.25 8.625 14.75z" />
        <path d="M311.25 822.5s-1.25-67.25-17.917-108.167c0 0-17-45.583-27.333-61.583" />
    </g>
    <path
        d="M315.5 957.5s.668.218 1.813.709 2.754 1.272 4.678 2.405c1.945 1.103 4.1 2.706 6.67 4.42 2.555 1.733 5.51 3.586 8.772 5.537 3.271 1.938 6.874 3.938 10.745 5.935a231.59 231.59 0 0 0 12.376 5.859c4.331 1.947 8.912 3.711 13.585 5.438l7.129 2.4 7.261 2.173 3.649 1.033c1.218.336 2.449.616 3.67.927l3.662.899 3.667.778c2.429.552 4.865.967 7.269 1.386 2.398.461 4.791.764 7.139 1.096 2.342.382 4.662.628 6.933.871l3.367.372 3.298.239c4.337.384 8.454.444 12.252.584l5.454-.025c1.733 0 3.377-.018 4.919-.107 3.085-.146 5.797.035 8.038.109a43.44 43.44 0 0 1 5.257.563c1.228.205 1.896.398 1.896.398s-.607.317-1.771.754a43.24 43.24 0 0 1-5.106 1.569c-.555.138-1.142.27-1.759.398-.62.095-1.267.213-1.946.296-1.354.197-2.827.335-4.401.46-1.574.135-3.254.18-5.025.219l-5.578.14c-3.888-.062-8.105-.04-12.556-.34l-3.385-.177-3.459-.31c-2.333-.202-4.719-.407-7.129-.748-2.413-.32-4.869-.63-7.332-1.089-2.47-.419-4.972-.836-7.467-1.391l-3.768-.784-3.763-.906-3.771-.937-3.751-1.044c-5.002-1.401-9.906-3.121-14.706-4.868-4.766-1.839-9.433-3.713-13.841-5.771-4.44-1.986-8.601-4.183-12.521-6.297-3.904-2.148-7.53-4.293-10.82-6.365-3.281-2.085-6.249-4.06-8.815-5.904-2.578-1.826-4.803-3.462-6.413-5.095a24.78 24.78 0 0 1-3.445-4.106c-.693-1.057-.971-1.703-.971-1.703z"
        class="D" />
    <path
        d="M267.25 984s7.375 30.125 37 41.375c0 0 21.625 9.875 55.5 5.5 0 0 17.875-2.25 13.125-11.125 0 0-11.375-24-28.125-42.125"
        class="B C E F" />
    <path
        d="M801.5 645.75l1.986 1.744 5.29 5.059c2.229 2.198 4.813 4.953 7.81 8.087 3.018 3.113 6.537 6.515 10.551 10.025 8.015 7.022 18.059 14.477 29.758 20.765 5.847 3.138 12.105 5.965 18.657 8.284 1.645.561 3.28 1.167 4.964 1.642 1.674.506 3.347 1.032 5.056 1.439 1.716.441 3.377.888 5.116 1.237 1.731.372 3.476.715 5.222 1.039 6.977 1.264 14.058 2.277 20.863 2.329.854.023 1.685-.024 2.518-.056l.624-.024.078-.003c-.208.02.006-.001.009-.001l.243-.02.43-.019c.56-.014 1.106.011 1.665.074 1.108.125 2.269.416 3.411 1.016a7.01 7.01 0 0 1 2.864 2.837c.639 1.218.861 2.495.886 3.629.021 1.143-.135 2.185-.348 3.169-.477 1.97-1.133 3.605-1.808 5.228a80.73 80.73 0 0 1-10.082 17.299c-3.879 5.065-8.178 9.375-12.548 12.854s-8.809 6.12-12.919 8.049a61.94 61.94 0 0 1-11.033 3.992 65.79 65.79 0 0 1-7.389 1.478l-2.641.335-.467-3.973s.867-.109 2.482-.376 3.974-.72 6.902-1.554c2.923-.846 6.429-2.044 10.229-3.902a60.94 60.94 0 0 0 11.924-7.657c4.028-3.298 7.996-7.381 11.573-12.187 3.581-4.789 6.857-10.286 9.366-16.281.62-1.49 1.2-3.038 1.518-4.404.314-1.379.277-2.693-.088-3.317-.182-.313-.409-.545-.811-.768-.405-.212-.965-.384-1.599-.452-.666-.093-1.17-.02-2.221.016-.93.036-1.864.084-2.781.059-7.373-.071-14.598-1.136-21.769-2.438l-5.359-1.073c-1.787-.36-3.591-.864-5.342-1.327-1.776-.439-3.513-.998-5.249-1.537-1.747-.509-3.442-1.149-5.146-1.747-6.786-2.46-13.247-5.44-19.263-8.729-6.023-3.28-11.567-6.923-16.632-10.616-5.063-3.7-9.631-7.478-13.689-11.131s-7.611-7.186-10.652-10.414c-3.063-3.207-5.526-6.201-7.334-8.835-1.828-2.618-3.027-4.848-3.789-6.395-.742-1.559-1.036-2.449-1.036-2.449z"
        class="D" />
    <g class="B C E F">
        <path
            d="M772.75 731s11.749-14.666 25.583-26.833c0 0 20.292-18.042 28.167-8.917 0 0 11.667 14.083 14.5 48.75 0 0 25 14.375 43.875 35.5 0 0 6.5 6-.375 13.5 0 0-16.166 15.667-32.166 26.5 0 0-8.833 39.166-20.667 54.833 0 0-3.667 5-13.167-1.833 0 0-22.833-13.834-34-27.667 0 0-19.334 5.668-53.167 6.334 0 0-5.958.958-5.708-10.542 0 0-1.79-23.624 5.376-46.958 0 0-10.834-21.667-16.167-50.5 0 0-1.167-6.334 6-7.834 0 0 23.667-4.166 51.916-4.333z" />
        <path
            d="M873.25 804.25s13.25 45-4.25 79.25c0 0-21.75 47.5-84.25 51 0 0-7.25.167-7.25-11.499 0 0 1.834-51 14.167-70.167" />
    </g>
    <path
        d="M679 961s1.595-1.14 4.477-2.827l5.24-2.917 6.923-3.443c5.12-2.409 11.043-5.33 17.284-8.644l9.555-5.223c3.228-1.821 6.481-3.714 9.684-5.685 3.212-1.957 6.391-3.96 9.479-5.99l4.549-3.074 4.365-3.097 4.152-3.082 3.893-3.052 3.611-2.974 3.296-2.863c2.049-1.9 3.938-3.634 5.523-5.254 1.644-1.568 2.914-3.074 4.05-4.241 1.099-1.197 1.895-2.192 2.47-2.845l.867-1.014 3.164 2.447-.854 1.1c-.566.708-1.354 1.788-2.439 3.088-1.109 1.274-2.409 2.878-4.051 4.563-.816.846-1.646 1.792-2.596 2.705l-2.979 2.891-3.338 3.026c-1.168 1.028-2.401 2.059-3.665 3.124-1.271 1.055-2.614 2.09-3.967 3.174l-4.225 3.2-4.455 3.182-4.648 3.127c-3.159 2.054-6.382 4.119-9.679 6.055a304.7 304.7 0 0 1-9.913 5.63c-3.299 1.802-6.574 3.517-9.777 5.108a408.8 408.8 0 0 1-17.702 8.268c-2.625 1.131-5.072 2.076-7.279 2.817-2.201.758-4.17 1.293-5.796 1.711C680.956 960.808 679 961 679 961z"
        class="D" />
    <path
        d="M446 616.333c9.833 14.5 4.833 35.5 4.833 35.5-7.333 30.833-27.667 57-27.667 57-7.833 12.167-20.5 9.833-20.5 9.833-10.333-1-18.417-2.917-18.417-2.917-34.5-7.25-56.5-34.75-56.5-34.75-22.5-29.75-2-51.75-2-51.75 20.75-23.5 46.25-7 46.25-7S378 607 398.25 599c0 0 9-3.25 20.75-1.5"
        class="B C E F" />
    <path
        d="M297 701s.147-.595.516-1.58c.359-.991.942-2.366 1.751-3.956l1.383-2.519 1.72-2.701 2.018-2.767 2.193-2.786 2.345-2.676 2.416-2.48 2.402-2.199 2.284-1.846 2.06-1.424c.604-.428 1.209-.719 1.67-.995l1.493-.803 1.999 3.465-1.21.912c-.384.292-.876.587-1.386 1.042l-1.768 1.416-2.039 1.775-2.231 2.06-2.336 2.285-2.355 2.442-2.334 2.485-2.22 2.462-4.079 4.308-1.695 1.697-1.36 1.285L297 701z"
        class="D" />
    <path
        d="M442 731.667s-1.666-15.333 5.667-26.333c0 0 8.833-13.208 23.708-17.583 0 0 15.75-4.625 37.25.25 0 0 18.75 3.875 25.25 16.625 0 0 4.375 5.958 3.792 24.875 0 0 .117 9.788-4.542 20-2.575 5.645-7.015 11.68-13.125 17.583 0 0-12.333 11.75-23.083 13.917 0 0-11.25 2.917-20.583-3.166 0 0-14.583-8.084-26.708-25.834-.001-.001-6.876-9.417-7.626-20.334zm283 99c-5-5.5-15.167-13-15.167-13-7.667-5.5-12.083-.167-12.083-.167-11.75 14.25-15.5 32.75-15.5 32.75l-22.75 16.251s-4.625 4.374 0 10.374c0 0 12 11.5 22.25 16.375 0 0 4.583 21.083 14.25 30.083 0 0 6.666 7 12.333 1.167 0 0 12.167-11.875 16.542-19.125 0 0 15.875 4.125 31.75 3 0 0 6-.25 5.375-6.125 0 0-1.625-19.375-7.75-30.75 0 0 7.583-11 8.25-22.333M433.167 920s10.083 12.5 26.208 16.375c0 0 21 5.5 38.125-8.125 0 0 9.125-8.5 13.5-14.5 0 0 17 7.5 29.125 8.625 0 0 21.543 3.792 42.709-3.208 0 0 15.916-5.542 26.833-23.833 0 0 6.333-11.001 9.5-15.667"
        class="B C E F" />
    <path
        d="M504.188 924.438s7.896-6.604 18.979-4.021L511.25 914.5s-7.062 8.563-7.062 9.938zm-60.813-5.5s-6.625-2.188-12.313-1.063c0 0-5.813 1.125-9.938 5.688 0 0-.813 1.188 2.25.5 0 0 6.875-1.813 10.875-.375 0 0-.417-1.5 2.083-2.688 0 0 2.792-1.708 6.125-1.499.001 0 1.835.374.918-.563zm162.25-37.813s8.063-3.125 17.063-3.313c0 0 9.125-.625 17.188 1.875 0 0 .938.688-1.125 1.063 0 0-7.375.125-11.25 1.5 0 0-9.188 4.313-13.813 10 0 0 3.875-5.813 2.125-9.563 0 0-5.063-.188-10.5.438 0 0-2.625-.187.312-2z"
        class="D" />
    <path stroke="#cc7489"
        d="M526.422 840.935s-10.477-5.167-28.292-3.227c0 0-14.683 1.527-28.123 10.022 0 0-8.904 6.167-6.822 14.412 0 0 5.82 13.595 28.815 21.357 0 0 11.161 5.214 23.333-5 0 0 15.705-14.447 17.731-26.068 0 .001 2.21-7.774-6.642-11.496z"
        class="B C E" />
    <path
        d="M311.75 803.625s10.75-12.875 30-23.875c0 0 29.75-15.75 66.5-4.75 0 0 20 5.75 42 24.5 0 0 8.75 8.5 9.75 18.667 0 0 1.834 9.166-8.333 3.833 0 0-23.834-9.999-51.167-9.833 0 0-36.667-1-62.333 10.833 0 0-7.708 3.875-16.042 8.375 0 0-5.375-7.583-9.375-9.75 0 0-.25-14.833-1-18z"
        class="D" />
    <path
        d="M722.625 773.375c-6 10.375-24.5 22.375-24.5 22.375-17.625 11.5-48.291 20.917-48.291 20.917-25.166 8.167-55.167 2.833-55.167 2.833C575 815.667 565 800.5 565 800.5s-15.666-21.666-20.166-44.333c0 0-4.835-21-5.001-41.833 0 0-2.167-29.667 11.5-52 0 0 17.417-28.583 47.417-40.333 0 0 23.749-9.5 52.583-6.5 0 0 35.5 4 55 30.5 0 0 12 15 21.334 40.167 0 0 7.834 22.333 5.667 46.833"
        class="B C E F" />
    <path
        d="M543 736.334s1.667-30.334 18-61.459c0 0 13.834-26.042 40.667-37.208 0 0 26.25-10.75 55.958-3.542 0 0 27.75 7.375 46.042 33.542 0 0 17.666 24.5 23.166 64.833 0 0 4 1 5.667-.333 0 0 2.334-34.834-10.333-55.5 0 0-8.333-30.166-37.5-48.333 0 0-15.167-16-59.667-11.333 0 0-32.833 1.667-54.5 24.833 0 0-16.333 11.333-22.833 30.833 0 0-7.667 15.166-6.167 25.333 0 0-2.75 26.75 1.5 38.334zm176.875 31.416s-4 11.375-9.25 17.625c0 0 8.75-6.25 11-13.25 0 0-.375-3.5-1.75-4.375z"
        class="D" />
    <path
        d="M452.333 934.5s-10.5 16.833-3.5 32.333c0 0 5 16.666 30 23 0 0 26.833 5.668 47.167-9.666 0 0 19.499-13.501 29.333-32.334 0 0 8.668-15.166 11.834-25"
        class="B C E F" />
    <path
        d="M490.333 953.667s-.133-.529-.235-1.46c-.124-.932-.195-2.258-.191-3.854l.132-2.563.357-2.843a31.03 31.03 0 0 1 .615-3.009l.832-3.076c.287-1.033.707-2.03 1.051-3.032l1.257-2.874 1.419-2.602 1.495-2.229 1.479-1.758c.422-.531.931-.9 1.277-1.248l1.174-1.022 2.678 2.971-.812 1.005c-.251.326-.618.645-.924 1.146l-1.123 1.568-1.215 1.969-1.251 2.293-1.222 2.549-1.141 2.722-1.057 2.783-.959 2.743-.909 2.587-.839 2.338-1.888 4.896z"
        class="D" />
    <path
        d="M701.375 951.625S720 946.25 739.25 969.25c0 0 19.75 21.751 24 57.75 0 0 3.75 49.167-12.25 78.25 0 0-22 42.25-57.25 56 0 0-24 9.25-39.583-4.416 0 0-15.5-13.334-25.667-30.667"
        class="B C E F" />
    <g class="D">
        <path
            d="M689.5 1057.25c-3.545-2.237-6.329-4.914-8.962-7.769-2.603-2.871-5.208-5.743-7.971-8.462l-2.054-2.055-2.114-1.993-2.116-1.989-2.176-1.921c-1.456-1.274-2.895-2.57-4.416-3.764s-2.968-2.482-4.539-3.605l-4.66-3.437-4.805-3.216c-1.608-1.06-3.297-1.984-4.94-2.983-1.63-1.027-3.356-1.867-5.063-2.745l-2.56-1.315c-.846-.457-1.75-.776-2.622-1.171l-5.309-2.254c-3.461-1.285-7.185-2.299-10.895-2.988-3.727-.693-7.499-1.063-11.263-1.144-3.768-.062-7.505.316-11.179.961-3.624.816-7.243 1.782-10.56 3.445l-1.26.582-.631.29-.04.018c-.095.051.085-.049.052-.03l-.079.047-.153.091-.283.172c-.771.469-1.576 1-2.358 1.522a89.25 89.25 0 0 0-4.612 3.364c-3.012 2.341-5.881 4.872-8.582 7.561s-5.256 5.525-7.546 8.552c-1.201 1.476-2.223 3.073-3.318 4.619l-1.497 2.41-1.536 2.51-6.094 10.055.104-.188c-1.067 2.12-2.203 4.123-3.329 6.175-1.223 1.999-2.346 4.034-3.653 6.003l-2.03 2.928-1.02 1.46-.256.364-.063.092c-.042.054.05-.058-.104.133l-.034.041-.132.158-.475.597c-1.316 1.694-2.552 3.53-3.669 5.414-2.245 3.771-4.085 7.787-5.416 11.937-.284 1.05-.62 2.088-.867 3.145-.208 1.063-.513 2.113-.647 3.186s-.373 2.135-.413 3.212l-.122 1.612a8.48 8.48 0 0 0-.025 1.48c.199 4.211 1.22 8.536 2.715 12.591 1.552 4.054 3.655 7.898 6.263 11.378.621.894 1.332 1.718 2.044 2.541l1.035 1.205a45.39 45.39 0 0 0 1.139 1.117c1.586 1.508 3.287 2.941 5.039 4.289 3.496 2.715 7.251 5.095 11.192 7.026s8.091 3.391 12.344 4.147c1.058.152 2.14.388 3.209.467a78.27 78.27 0 0 0 3.321.229c2.229.12 4.471.127 6.708.096 8.932-.212 17.912-1.518 26.111-4.74 4.049-1.592 7.985-3.887 11.828-6.194 1.868-1.244 3.81-2.392 5.597-3.746l2.729-1.967 2.598-2.121c1.786-1.36 3.336-2.954 4.961-4.474 1.669-1.568 3.261-3.219 4.895-4.823 1.582-1.64 3.335-3.195 5.191-4.588 1.883-1.372 3.839-2.66 6.123-3.538-2.105 4.524-5.198 7.75-8.467 10.959l-4.851 4.867c-1.703 1.627-3.347 3.333-5.196 4.773l-2.707 2.248-2.826 2.077c-1.856 1.43-3.854 2.639-5.787 3.949-3.983 2.437-7.969 4.827-12.44 6.645-4.419 1.795-9.012 3.03-13.644 3.874s-9.318 1.286-14.001 1.434c-2.343.055-4.686.067-7.033-.037a83.4 83.4 0 0 1-3.535-.212c-1.219-.083-2.385-.319-3.595-.486-4.777-.807-9.363-2.386-13.664-4.443-4.31-2.054-8.338-4.602-12.09-7.489-1.883-1.438-3.697-2.953-5.438-4.595-.43-.407-.874-.833-1.317-1.285-.47-.505-.806-.925-1.215-1.392-.79-.907-1.575-1.817-2.271-2.802-2.901-3.841-5.254-8.099-6.993-12.595-1.68-4.529-2.83-9.217-3.092-14.167-.039-.592-.037-1.405.021-1.951l.13-1.814c.048-1.216.294-2.401.448-3.602s.476-2.365.709-3.549c.27-1.175.632-2.321.946-3.482 1.447-4.582 3.437-8.956 5.86-13.064 1.213-2.06 2.529-4.041 4.017-5.97l.593-.749.143-.173.034-.041c-.132.162-.02.021-.041.046l.059-.085.234-.341.939-1.362 1.89-2.718c1.232-1.841 2.332-3.822 3.506-5.726l3.211-5.912.053-.104.051-.083 6.121-10.037 1.54-2.5 1.613-2.578c1.17-1.648 2.274-3.353 3.552-4.918 2.45-3.215 5.162-6.211 8.022-9.041a98.78 98.78 0 0 1 9.071-7.947c1.585-1.238 3.225-2.41 4.895-3.549.849-.563 1.681-1.11 2.586-1.657l.346-.208.162-.096.08-.046c-.008.003.199-.11.133-.072l.044-.02.704-.326 1.408-.648c3.717-1.836 7.734-2.914 11.742-3.792 4.047-.704 8.141-1.059 12.215-.964 4.07.118 8.116.554 12.091 1.327 3.987.782 7.85 1.854 11.724 3.331 1.807.738 3.665 1.592 5.494 2.384.909.421 1.855.769 2.732 1.25l2.658 1.392c1.771.931 3.562 1.825 5.244 2.9 1.696 1.049 3.44 2.027 5.096 3.136l4.938 3.365c1.608 1.17 3.181 2.389 4.772 3.58 1.608 1.172 3.086 2.502 4.635 3.745s3.017 2.579 4.498 3.898l2.215 1.988 2.149 2.054 2.146 2.059 2.084 2.119c1.404 1.398 2.756 2.848 4.099 4.305 1.361 1.438 2.659 2.938 3.957 4.434 1.254 1.537 2.439 3.131 3.434 4.876 1.003 1.723 1.882 3.569 2.409 5.611z" />
        <path
            d="M672.333 983.5l-1.209 1.553-1.305 1.751-1.62 2.243-1.82 2.669-1.953 2.999c-.67 1.043-1.222 2.214-1.854 3.349l-1.641 3.603-1.4 3.71-1.173 3.667-.95 3.487-.677 3.18-.315 1.412-.214 1.291-.361 2.102-.348 1.832-3.984-.359.117-1.953.173-2.244.129-1.379.244-1.52.589-3.419.955-3.766c.333-1.306.856-2.61 1.293-3.959.209-.679.499-1.336.795-1.993l.871-1.983c.593-1.317 1.311-2.585 1.985-3.836l2.294-3.511 1.187-1.614c.396-.521.84-.99 1.248-1.462.811-.946 1.725-1.722 2.533-2.444l2.446-1.716c.747-.477 1.464-.804 2.042-1.068l1.41-.499c.33-.098.513-.123.513-.123zm56.334 180.834l-.519-.882-1.188-2.278-1.422-3.196-.751-1.784-.745-1.834-.782-1.805-.359-.892-.402-.839-.74-1.598c-.22-.516-.413-1.013-.665-1.423l-1.031-2.109-.351-.835 3.328-2.219.607.796 1.492 2.19c.311.459.556.991.831 1.549l.817 1.778.418.945.335.997.638 2.046c.229.681.344 1.391.499 2.076l.373 2.028c.132 1.34.238 2.581.168 3.67l-.112 1.479-.188 1.148c-.058.316-.121.563-.176.731l-.075.261zm-259.834-150.833c-1.25 1.46-2.689 2.702-4.176 3.828-1.489 1.135-3.058 2.134-4.671 3.047-3.237 1.809-6.65 3.247-10.034 4.737-3.411 1.423-6.834 2.828-10.319 4.063-3.454 1.325-6.997 2.393-10.507 3.556l-5.333 1.533-2.671.753-2.695.661-5.396 1.305-5.447 1.074c-3.62.79-7.3 1.234-10.958 1.813-1.826.313-3.674.461-5.516.657l-5.529.565c-3.698.269-7.394.403-11.11.588.004.006-.154.016-.275.043-.13.021-.258.055-.386.097-.257.073-.488.188-.707.307-.426.253-.742.595-1.006 1.042-.527.892-.747 2.316-.596 3.864.009.377.103.784.146 1.175l.096.676c.035.232.071.45.11.64.135.771.346 1.66.543 2.492a61.86 61.86 0 0 0 1.508 5.039c1.117 3.342 2.611 6.552 4.215 9.689.894 1.519 1.665 3.114 2.682 4.557l1.449 2.212c.479.741 1.056 1.41 1.579 2.119l1.605 2.102 1.762 1.969 1.766 1.968 1.915 1.821 1.914 1.827c.675.566 1.375 1.104 2.062 1.657l2.069 1.653c.67.578 1.458.996 2.181 1.503l2.214 1.46 1.107.731c.379.227.779.421 1.167.633l4.691 2.504.149.076c.259.146.695.337 1.051.51.375.175.787.324 1.178.489.777.346 1.632.576 2.444.871.821.283 1.684.469 2.524.711.423.112.842.239 1.278.312l1.294.261 1.294.266c.429.103.87.146 1.308.204l2.632.342c.875.146 1.769.12 2.652.188l2.662.144v4l-2.842-.068c-.947-.046-1.898.002-2.843-.123l-2.839-.286c-.473-.05-.948-.086-1.417-.182l-1.411-.246c-.94-.171-1.886-.307-2.812-.568-.929-.248-1.867-.439-2.788-.738-.918-.313-1.847-.551-2.757-.933-.458-.183-.912-.343-1.372-.546-.474-.221-.887-.384-1.434-.677l.148.076-5.039-2.582c-.417-.221-.845-.423-1.254-.658l-1.197-.76-2.395-1.522c-.783-.529-1.629-.971-2.36-1.574l-2.25-1.736-2.242-1.749-2.092-1.928-2.09-1.932-1.918-2.103-1.908-2.113-1.744-2.248c-.567-.76-1.19-1.48-1.711-2.273l-1.575-2.369c-1.099-1.55-1.946-3.253-2.912-4.885-1.748-3.36-3.377-6.798-4.569-10.409-.618-1.796-1.163-3.62-1.629-5.478-.223-.947-.438-1.84-.618-2.871-.05-.26-.088-.494-.121-.713l-.096-.685c-.062-.517-.166-1.01-.186-1.548-.163-2.07-.032-4.472 1.279-6.779.652-1.127 1.633-2.156 2.791-2.829.579-.331 1.181-.604 1.803-.787.31-.097.625-.175.946-.23a7.23 7.23 0 0 1 1.086-.123l10.819-.518 5.398-.505c1.798-.176 3.604-.302 5.389-.594 3.576-.535 7.174-.934 10.717-1.676l5.334-1.002 5.29-1.219 2.647-.603c.88-.208 1.749-.464 2.625-.693l5.244-1.414c3.453-1.084 6.943-2.07 10.346-3.313 3.435-1.152 6.809-2.475 10.174-3.813l5.001-2.119c1.641-.763 3.31-1.468 4.974-2.182 3.368-1.373 6.766-2.626 10.495-3.508z" />
        <path
            d="M436.833 1095.334c-.608 1.184-1.284 2.161-1.993 3.119-.723.928-1.469 1.811-2.271 2.621-.782.836-1.637 1.585-2.46 2.371l-2.414 2.416-2.322 2.504-2.221 2.592-2.104 2.684c-.721.88-1.333 1.84-1.996 2.761l-1.89 2.829-1.789 2.892-1.62 2.984c-.568.979-1.022 2.017-1.498 3.042l-1.394 3.086-1.208 3.161c-.437 1.041-.743 2.127-1.072 3.204l-.994 3.229-.055.175-.159.604-.136.715a10.43 10.43 0 0 0-.137 1.445c-.021.242.004.474.006.709-.004.239.034.463.059.69.017.231.056.452.112.665.05.215.08.439.164.635l.213.603.272.562c.095.184.23.34.337.516.099.18.238.334.384.481s.259.319.427.453l.498.404c.148.15.359.251.549.367l.574.353.229.135 1.31.728 1.456.705 1.503.644 1.534.59 3.149.982 1.596.427 1.622.326c1.075.251 2.17.383 3.266.518l1.641.206 1.653.099 1.652.103 1.657-.025c1.104-.051 2.213.024 3.312-.142l3.303-.348 3.268-.639c1.098-.17 2.161-.51 3.229-.822l3.195-.976 3.121-1.224 1.555-.629 1.505-.753 3.014-1.502.377-.188.047-.023c.032-.018-.192.113-.086.051l.023-.014.089-.056.164-.104.695-.452 1.405-.942c3.741-2.565 7.327-5.418 10.687-8.479 3.351-3.074 6.484-6.377 9.226-9.951 1.381-1.78 2.621-3.649 3.771-5.563s2.095-3.926 2.955-5.96c.849-2.041 1.588-4.104 2.323-6.226.715-2.134 1.288-4.322 2.022-6.699.916 2.29 1.258 4.781 1.186 7.255-.126 2.465-.614 4.924-1.452 7.24-.865 2.303-1.911 4.529-3.114 6.648-1.214 2.111-2.525 4.161-3.971 6.1-2.873 3.892-6.128 7.447-9.597 10.75a104.43 104.43 0 0 1-11.076 9.126l-1.488 1.032-.769.506-.206.132-.097.062-.156.093-.051.025-.405.206-3.246 1.641-1.624.817c-.546.263-1.125.462-1.686.695l-3.393 1.348c-1.136.438-2.331.723-3.495 1.089-1.17.348-2.335.719-3.547.92l-3.604.719-3.66.406c-1.216.182-2.453.119-3.68.178-.614.01-1.229.041-1.843.032l-1.843-.101-1.843-.104c-.614-.044-1.223-.146-1.833-.226-1.221-.164-2.441-.329-3.641-.619l-1.807-.387-1.782-.496c-1.194-.309-2.356-.733-3.521-1.144-.587-.188-1.151-.459-1.727-.686a22.4 22.4 0 0 1-1.706-.754c-.565-.263-1.128-.533-1.686-.841a23.38 23.38 0 0 1-1.734-1.002l.229.135-.949-.58c-.313-.199-.633-.379-.921-.64l-.875-.737c-.288-.251-.53-.564-.792-.849s-.51-.585-.713-.922c-.209-.328-.44-.647-.619-.991l-.496-1.051c-.153-.354-.252-.721-.375-1.082-.131-.363-.192-.729-.27-1.096a7.61 7.61 0 0 1-.17-1.097c-.038-.364-.083-.73-.08-1.089-.003-.359-.025-.723.003-1.075.029-.712.1-1.413.224-2.104.054-.347.132-.692.211-1.037.092-.364.165-.656.32-1.116l-.055.175 1.098-3.442c.358-1.149.728-2.296 1.213-3.398l1.365-3.339c.466-1.107 1.04-2.165 1.556-3.249.53-1.077 1.04-2.165 1.663-3.19l1.789-3.119c.637-1.014 1.306-2.007 1.958-3.01.635-1.016 1.345-1.978 2.06-2.937s1.389-1.946 2.166-2.854l2.273-2.766 2.389-2.663c.816-.869 1.662-1.711 2.491-2.566.841-.845 1.725-1.646 2.584-2.471.888-.796 1.765-1.606 2.734-2.308.98-.69 2.002-1.326 3.125-1.823 1.117-.497 2.319-.902 3.631-1.038zM443 1019l.043.453c.022.286.037.687.023 1.167l-.108 1.631c-.054.596-.192 1.2-.303 1.822-.151.605-.243 1.235-.448 1.79a9.78 9.78 0 0 1-.69 1.462c-.472.823-.959 1.256-.959 1.256l-3.364-2.163c0 .001.097-.595.501-1.314.2-.362.469-.764.807-1.172.176-.196.334-.434.523-.651l.552-.68 2.249-2.48L443 1019zm-58.75 144.75s-.065-.276-.137-.797l-.204-2.285.013-3.551.443-4.576 1.035-5.33.761-2.864.41-1.478.499-1.478 2.12-6.113 2.558-6.168 2.788-5.984 3.022-5.709 2.797-5.2 2.433-4.697 1.996-3.973.837-1.654.62-1.38 1.185-2.609 3.818 1.193-1.069 3.004-.592 1.568-.761 1.743-1.876 4.156-2.344 4.825-1.38 2.661-1.395 2.644-2.952 5.517-2.882 5.855-2.65 5.885-2.316 5.8-.549 1.405-.459 1.402-.908 2.708-1.639 4.979-1.351 4.245-.546 1.786-.464 1.527-.639 2.161-.222.782z" />
    </g>
    <path d="M408.875 1000.25s-5.125-1.125-17 20.75c0 0-7.375 13-11.625 18.375M366 1105.5s17.75-11 34-11.75"
        class="B C E F" />
    <g class="D">
        <path
            d="M370.201 1055.35c-2.97 2.257-6.071 4.188-9.19 6.11l-4.761 2.726c-1.593.897-3.239 1.691-4.858 2.538-1.614.859-3.279 1.61-4.946 2.357-1.671.736-3.311 1.551-5.009 2.223l-10.066 3.979a155.23 155.23 0 0 0-9.696 4.411c-3.177 1.586-6.323 3.24-9.365 5.052-1.544.871-3.018 1.848-4.525 2.771-1.455.995-2.961 1.927-4.365 2.983l-2.133 1.552-2.061 1.631c-.699.532-1.359 1.102-2.01 1.681l-1.913 1.667c-.622.646-1.076 1.127-1.634 1.83-.537.652-1.076 1.303-1.56 2.016-.485.707-1.027 1.367-1.469 2.11l-1.361 2.198c-.889 1.477-1.625 3.053-2.449 4.572l-2.05 4.786-1.653 4.951c-.586 1.789-1.067 3.466-1.606 5.204l-3.151 10.344-1.576 5.171-.394 1.293-.163.538-.157.619a66.92 66.92 0 0 0-.568 2.533c-.704 3.422-1.188 6.9-1.425 10.364-.229 3.461-.201 6.926.267 10.261.469 3.32 1.402 6.546 3.095 9.13l.039.06.078.138c.695 1.235 1.644 2.629 2.591 3.873.954 1.276 2.015 2.47 3.109 3.621 2.206 2.282 4.664 4.304 7.365 5.853 2.695 1.555 5.623 2.628 8.646 3.125l1.136.186.284.048.38.05.506.048c.757.057 1.539.08 2.324.08a37.58 37.58 0 0 0 4.737-.341c3.155-.42 6.264-1.241 9.235-2.402 1.508-.532 2.925-1.282 4.365-1.972 1.38-.809 2.804-1.546 4.095-2.504 2.69-1.752 5.061-3.954 7.36-6.213 2.224-2.356 4.409-4.949 6.51-7.517 2.112-2.582 4.12-5.246 6.055-7.954 1.95-2.701 3.741-5.501 5.473-8.328 1.661-2.86 3.29-5.749 4.613-8.75.722-1.481 1.281-3.012 1.877-4.531.565-1.466 1.001-3.09 1.464-4.679.891-3.199 1.651-6.443 2.265-9.707s1.123-6.547 1.396-9.839c.323-3.29.395-6.587.243-9.849-.134-3.297-.335-6.401.405-10.113.63.695 1.125 1.46 1.581 2.248.218.396.453.795.619 1.207.155.413.313.829.445 1.252.268.842.532 1.7.671 2.566.129.866.212 1.739.278 2.613a72.43 72.43 0 0 1-.153 10.422c-.254 3.454-.748 6.87-1.354 10.26a120.41 120.41 0 0 1-2.249 10.073c-.467 1.661-.89 3.317-1.519 5.016-.621 1.637-1.213 3.29-1.958 4.861-1.379 3.204-3.049 6.237-4.755 9.239-1.772 2.959-3.603 5.879-5.586 8.684-1.97 2.814-4.01 5.575-6.156 8.251-2.153 2.691-4.321 5.284-6.725 7.862-2.501 2.496-5.107 4.928-8.082 6.896-1.43 1.063-3.007 1.904-4.543 2.807-1.6.784-3.183 1.62-4.864 2.229-3.318 1.315-6.792 2.253-10.341 2.744-1.775.244-3.564.396-5.375.413a36.34 36.34 0 0 1-2.746-.082l-.756-.071-.166-.02-.079-.011c-.03-.003.124.015.039.004l-.043-.006-.342-.053-1.37-.212c-3.648-.579-7.175-1.863-10.347-3.675-3.177-1.812-6.02-4.105-8.502-6.692-1.235-1.301-2.421-2.644-3.493-4.078-1.092-1.452-2.066-2.851-3.027-4.566l.116.197c-2.262-3.491-3.311-7.391-3.853-11.177-.528-3.809-.542-7.59-.294-11.315a82.96 82.96 0 0 1 1.53-11.04c.19-.914.388-1.81.619-2.741l.176-.69.228-.757.396-1.292 1.582-5.17 3.164-10.34 1.588-5.125 1.779-5.302 2.213-5.15c.889-1.649 1.69-3.344 2.659-4.953l1.488-2.396c.483-.806 1.083-1.548 1.621-2.324.532-.777 1.141-1.517 1.751-2.255.558-.713 1.341-1.546 1.973-2.192l.182-.175.132-.114.264-.229.527-.457 1.055-.913c.699-.616 1.412-1.213 2.152-1.768l2.195-1.703 2.254-1.608c1.489-1.096 3.06-2.051 4.59-3.073 1.573-.946 3.118-1.946 4.722-2.831 3.17-1.847 6.425-3.52 9.711-5.121 3.291-1.595 6.628-3.078 10.027-4.446l10.082-3.875c1.659-.638 3.259-1.416 4.893-2.116 1.629-.712 3.257-1.427 4.833-2.248 1.584-.803 3.204-1.543 4.764-2.391l4.667-2.568c3.047-1.807 6.103-3.644 8.91-5.706l2.403 3.199z" />
        <path
            d="M354.667 1270.001s-2.019.362-5.542.355c-1.76-.009-3.898-.083-6.329-.353a69.58 69.58 0 0 1-8.098-1.375c-5.863-1.369-12.67-3.307-19.65-6.396-3.488-1.541-6.995-3.418-10.364-5.69-1.694-1.12-3.32-2.392-4.906-3.731-.779-.688-1.544-1.4-2.296-2.128-.705-.751-1.5-1.541-2.126-2.268a29.2 29.2 0 0 1-1.03-1.241 21.56 21.56 0 0 1-.951-1.238l-.915-1.253-.856-1.28c-.586-.845-1.109-1.721-1.631-2.594l-.784-1.308-.718-1.335c-.995-1.759-1.807-3.586-2.649-5.372-.401-.901-.743-1.822-1.112-2.724-.354-.907-.735-1.797-1.008-2.717-.572-1.828-1.236-3.597-1.638-5.398-.444-1.789-.944-3.524-1.207-5.261l-.459-2.554-.216-1.248-.128-1.241-.481-4.743-.12-4.38-.038-2.029.104-1.913.19-3.461c.038-.533.041-1.048.104-1.534l.193-1.388.772-5.513 3.951.619-.5 5.298c-.228 1.679-.167 3.735-.252 6.082l-.043 1.815.098 1.92.196 4.134.547 4.46.143 1.165.23 1.17.461 2.393c.257 1.631.748 3.252 1.178 4.926.387 1.688 1.033 3.335 1.58 5.043.26.859.631 1.687.965 2.533.345.842.66 1.705 1.033 2.548.785 1.667 1.537 3.378 2.461 5.015 1.763 3.285 3.894 6.569 6.207 9.363 2.445 2.899 5.253 5.322 8.333 7.461 3.062 2.132 6.323 3.918 9.575 5.478 6.528 3.096 13.06 5.147 18.713 6.619l7.745 2.019 6.002 1.646c3.334.946 5.266 1.604 5.266 1.604zM624.5 1189.5l-.593-2.438-.54-2.784-.572-3.601-.521-4.251-.456-4.738-.573-5.048-.687-5.184-.829-5.143-.95-4.925-.527-2.324-.555-2.201-1.199-3.938-.619-1.696-.618-1.487-1.15-2.289c-.323-.634-.634-1.064-.837-1.371l-.312-.471 3.076-2.557.455.549c.297.359.749.884 1.211 1.595.507.698.994 1.589 1.561 2.61l.803 1.654.778 1.859.751 2.041.69 2.205 1.219 4.793.971 5.156.714 5.343.502 5.346.29 5.181.132 4.843-.157 4.342-.382 3.665-.473 2.819-.603 2.445zm-99.615-68.898c-1.819 1.132-3.652 2.492-5.375 3.914l-2.553 2.201-2.441 2.33c-3.19 3.176-6.063 6.661-8.622 10.353-2.625 3.656-4.676 7.674-6.576 11.729l-1.248 3.125-.625 1.561-.503 1.605-1.002 3.21c-.354 1.064-.521 2.182-.792 3.269l-.715 3.121-.393 3.454-.563 6.845-.281 3.421-.164 3.45-.308 6.905-.303 6.905-.046 6.919-.094 13.839-.025 3.505.039 3.417c.064 2.283.146 4.567.299 6.847.293 4.559.728 9.105 1.401 13.601.667 4.495 1.614 8.933 2.927 13.203l.491 1.604c.178.526.389 1.036.581 1.556.4 1.029.751 2.091 1.256 3.054.493.979.885 1.998 1.442 2.896.562.939 1.151 1.889 1.781 2.809 2.487 3.713 5.39 7.162 8.572 10.263 3.193 3.091 6.769 5.767 10.681 7.694.998.426 1.97.932 2.987 1.301l1.539.514.77.259.449.148c.134.038.289.091.404.117a22.77 22.77 0 0 0 1.52.359c.53.12 1.069.226 1.621.308 1.089.2 2.198.336 3.313.457 4.462.49 9.011.49 13.55.309l.106-.004.036.001c3.413.079 6.809.112 10.212.542 1.701.207 3.395.453 5.087.808 1.703.418 3.389.871 5.013 1.511-1.758.377-3.456.566-5.135.722l-2.545.249-2.538.156c-1.688.066-3.382.123-5.071.113l-5.067-.048.143-.003c-4.718.253-9.462.319-14.228-.138-1.191-.114-2.383-.244-3.578-.446a24.66 24.66 0 0 1-1.798-.317l-.906-.185-.961-.237-.432-.12-.376-.121-.883-.28-1.766-.565c-1.164-.407-2.268-.953-3.403-1.428-4.44-2.118-8.408-5.025-11.917-8.326a66.3 66.3 0 0 1-9.333-10.945 59.01 59.01 0 0 1-1.962-3.049c-.669-1.072-1.134-2.221-1.687-3.308-.574-1.095-.965-2.234-1.412-3.361-.214-.565-.448-1.128-.645-1.696l-.542-1.717c-1.441-4.578-2.461-9.229-3.19-13.896a152.66 152.66 0 0 1-1.526-14.045c-.16-2.346-.247-4.694-.314-7.045l-.044-3.534.021-3.447.079-13.972.039-6.985.338-6.985.346-6.984.184-3.493.305-3.507.615-7.011.41-3.452.006-.054.038-.217.025-.109.051-.218.103-.438.207-.873.417-1.745c.303-1.156.503-2.341.893-3.474l1.112-3.412.563-1.704.687-1.658 1.377-3.314c2.077-4.303 4.327-8.546 7.163-12.398 2.773-3.885 5.861-7.547 9.299-10.856l2.646-2.409c.924-.758 1.817-1.548 2.767-2.276 1.888-1.48 3.813-2.854 5.959-4.121l2.018 3.447z" />
        <path
            d="M551.667 1312.334l-.785-.627-1.908-1.722-1.191-1.191-1.279-1.35-2.618-3.008-1.299-1.524-1.225-1.495-2.161-2.603-1.512-1.787-.542-.721 2.707-2.945s1.168.874 2.743 2.397l2.381 2.769 2.348 3.405 2.006 3.596c.578 1.183 1.047 2.326 1.4 3.332.725 2.002.935 3.474.935 3.474zM515 1329s1.687.198 4.609.885l5.284 1.456 3.272 1.078 3.687 1.283c5.207 1.78 11.641 3.659 19.143 5.236 7.497 1.581 16.068 2.879 25.474 3.356 9.396.511 19.65.012 30.223-1.842 10.643-1.937 21.766-4.767 32.942-8.583 11.171-3.822 22.43-8.642 33.131-14.798 5.348-3.077 10.545-6.496 15.479-10.277 2.474-1.882 4.881-3.857 7.193-5.938l.875-.771.22-.193c.01-.008.132-.119.05-.042l.106-.104.405-.403 1.646-1.676 3.249-3.427c8.58-9.246 16.577-19.07 23.662-29.244 7.057-10.18 13.243-20.756 17.556-31.613l.8-2.03.724-2.045c.507-1.354.899-2.729 1.325-4.09.44-1.358.734-2.739 1.108-4.098l.531-2.112.488-2.076c1.271-5.539 2.323-11.021 3.258-16.368 1.846-10.7 3.03-20.913 3.624-30.355.622-9.443.58-18.119.135-25.765-.476-7.646-1.437-14.248-2.521-19.605-1.052-5.375-2.408-9.443-3.289-12.222l-1.567-4.18 3.691-1.539 1.708 4.367c.964 2.891 2.438 7.136 3.606 12.691 1.218 5.54 2.269 12.352 2.81 20.195.52 7.842.629 16.71.07 26.333-.529 9.625-1.652 20.008-3.442 30.891a272.71 272.71 0 0 1-3.257 16.667l-.499 2.13-.526 2.101c-.393 1.441-.711 2.918-1.172 4.352-.447 1.438-.865 2.896-1.394 4.315l-.759 2.149-.835 2.127c-4.504 11.357-10.862 22.218-18.063 32.634-7.234 10.406-15.348 20.39-24.079 29.82l-3.318 3.506-1.698 1.732-.439.438-.106.104-.172.157-.228.202-.913.808c-2.415 2.176-4.923 4.236-7.493 6.196-5.149 3.915-10.56 7.41-16.094 10.553-11.079 6.28-22.642 11.139-34.075 14.972a234.31 234.31 0 0 1-33.671 8.548c-10.994 1.856-21.554 2.294-31.224 1.71-9.675-.55-18.458-1.938-26.129-3.606-7.677-1.664-14.245-3.628-19.567-5.484-2.668-.908-5.029-1.79-7.004-2.756a38.43 38.43 0 0 1-4.871-2.753C516.146 1330.261 515 1329 515 1329z" />
        <path
            d="M382 1226l1.083 2.212 2.542 6.255c1.048 2.685 1.98 6.029 3.319 9.785 1.286 3.771 2.99 7.935 5.014 12.389 1.074 2.196 2.137 4.514 3.438 6.803 1.205 2.344 2.66 4.638 4.114 7.021.728 1.19 1.581 2.317 2.379 3.503l1.227 1.772c.418.589.891 1.141 1.337 1.718l2.747 3.463 3.02 3.329 1.595 1.745 1.588 1.663 3.33 3.315c2.261 2.203 4.619 4.367 7.039 6.496 4.846 4.252 9.982 8.322 15.299 12.112s10.889 7.197 16.574 10.092l2.125 1.091c.716.339 1.444.647 2.162.972l4.377 1.959a121.94 121.94 0 0 0 8.637 3.346c5.773 2.019 11.491 3.619 16.962 4.891 1.362.344 2.725.603 4.058.901l1.986.43 1.967.359 3.836.694 3.715.548c4.856.701 9.339 1.098 13.317 1.345a41.14 41.14 0 0 0 2.888.145l2.689.079 4.794.137 2.053.041 1.768-.028 2.79-.042 2.326-.033.307 3.988-2.438.104-2.933.123-1.86.076-2.063.014-2.268.005-2.548-.028-2.766-.039c-.958-.001-1.948-.033-2.97-.104-4.092-.192-8.704-.53-13.704-1.177l-3.825-.506-3.952-.653-2.027-.34-2.048-.41-4.184-.864c-5.642-1.253-11.523-2.881-17.501-4.928-2.996-1.018-5.995-2.148-9.035-3.445l-4.436-1.978-2.272-1.026-2.221-1.142c-5.942-3.035-11.714-6.575-17.189-10.493-5.492-3.898-10.709-8.146-15.645-12.539-2.463-2.203-4.86-4.438-7.163-6.72-1.157-1.135-2.286-2.286-3.399-3.441l-1.656-1.763-1.549-1.725-3.161-3.546c-.983-1.219-1.912-2.46-2.848-3.674-.459-.614-.946-1.203-1.375-1.827l-1.257-1.873c-.817-1.251-1.689-2.448-2.429-3.699-1.479-2.505-2.954-4.919-4.167-7.366-1.313-2.397-2.377-4.808-3.451-7.097-2.021-4.632-3.708-8.945-4.971-12.844-1.323-3.878-2.292-7.324-2.76-10.238-.475-2.914-.581-5.251-.531-6.858.041-1.612.2-2.475.2-2.475z" />
    </g>
    <g class="B C E F">
        <path
            d="M293.417 1243.584s-23 12.583-23.917 32.249c0 0-2.667 18.5 17.667 33.667 0 0 19.667 19.167 64.167 19.5 0 0 37.5-.333 59.667-6.833 0 0 22.833-6.249 27.583-10.166M128.833 679.333s-.667-13.5 10.5-21.5c0 0 13.917-12.333 31.542-4.583 0 0 15 6.25 17.5 23.375 0 0 11.375 8.75 9.75 17 0 0-1.625 9.625-18.75 10.625 0 0-3.75 3.625-7.125 5.625 0 0 1.084 12.792-17.083 20.625 0 0-20.042 6.125-32.542-4.875 0 0-13.75-11-11.5-31.75 0 0 1-9.5 5-16.125 0 0 2.5-4.125 6.25 0 0 0 3.938 4.063 6.458 1.583zM666.625 455S652.75 468.5 663 486.25c0 0 12.25 20.25 42.25 11.125 0 0 32.25-9.625 49.875-24 0 0 20.625-14.375 18.125-30.75 0 0-2.25-16.25-15.125-18.75 0 0-8.75-2.125-14.75 1.375 0 0-6.125-15.5-24.5-4.75 0 0-15.709-17.167-39.542-1.5 0 0-18.083 10.167-12.708 36zm-86.542 889.501S641 1376.333 713 1368.333c0 0 57.001-5 93.667-40.666 0 0 43.666-40 54-83.333 0 0 16.666-61.668 14-114.001 0 0-3.332-78.666-34.666-128.333 0 0-28.751-48-49.501-67.667" />
        <path
            d="M777.167 920.834s-6.501-6.667-10.334-9.5m-490.166 93.333s-30.917 34.833-66.917 57.083c0 0-41.75 30.25-105.25 43.75 0 0-12.5 1.501-10.167 14.667 0 0 2.333 31.501 43 76.834 0 0 29.667 34.249 70.917 51.999 0 0 36.5 15.25 66.25 12.25" />
    </g>
</svg>