<svg xmlns="http://www.w3.org/2000/svg" xmlns:xlink="http://www.w3.org/1999/xlink" width="898" height="174" stroke="#000" stroke-linecap="round" stroke-linejoin="round" fill="#fff" fill-rule="evenodd"><style><![CDATA[.B{fill-rule:nonzero}.C{stroke-linecap:butt}]]></style><g stroke="none" class="B"><g fill="#4d173f"><path d="M11.2675 52.9718s-6.25 8.75-8.375 21c0 0-7.75 37 15.75 58.5 0 0 5.625 1.625 5.25-5.5 0 0-9.875-13.5-12.375-25.25 0 0-4.75-23.375 4.5-37.875 0 0 11.875-26.875 28.125-30.875 0 0 21.125-6 34.25.75 0 0 8.125 2.25 12.875 9.5 0 0 6.958-9.708 16.708-11.208 0 0 12.667-2.333 15.5 5 0 0 2.833 17 2.667 25.25 0 0 .3339 9.917.6669 13.25 0 0 9.917-6.917 20.5-4.75 0 0 13.417 3.083 16.667 12.083l3.75 11.083s6.75-15.417 17.333-20.167c0 0 17.5831-8.75 33 .833 0 0 14.334 10.167 16.667 24 0 0 4.917-11.25 10.667-19.333 0 0 12.417-12.75 28-7.583 0 0 14 2.542 14.313 15.542 0 0-1.125 11.813-12.563 12.375 0 0-5.375-.75-8.875-2.375 0 0-9.25.063-8.25 9.938 0 0-.813 9.813 9.75 6.75 0 0 6.938-5.188 11.375-5.625 0 0 9.938 2.438 10.813 7.25 0 0-3.938-21.563 6.5631-31.313 0 0 12.5-15.25 26.125-13.875 0 0 21.625.75 29.875 14.75 0 0-10.375-19.875-4.75-40.875 0 0 6.875-20.625 32.875-28.375 0 0 23.25-7.833 37.917 2.417 0 0 9.833 6.833 12.333 12.833 0 0 4.084-11.833 19.834-16.167 0 0 21.416-3.208 28.041 3.292 0 0 9.375 8.625 10 22.25l9.875 3.25s3.125-19.313 16.5-24.063c0 0 18.083-7.146 31.5 2.354 0 0 11.084 6.083 10.667 19.583l-1.334 19.667s7.584-11.667 32.917-7c0 0-.083-23.25 5.75-32 0 0 11.667-14.917 27.417-13.083 0 0 20.333.792 27.583 14.292l3.125 11.75s13.625-13.875 30.375-12.375c0 0 21.125 4.625 22 14.75l1.75 19.75s9-9 27.3749-5.875c0 0 12.875 4.75 16.25 10.75 0 0 11-18.375 33.625-8.75 0 0 21.625-11.375 36.125 5.625 0 0 9.25-6.5 29.625-7.5 0 0 26.001 3.75 33.334 24.583 0 0 7.166 12.666-5.667 27.333l10.665 1.334s13.334-14 2.667-37c0 0-9.5-25-43.5-25.5 0 0-16.333-.333-25 6 0 0-11.334-7.333-24.334-7 0 0-9.6669.125-14.0419 3.375 0 0-16.125-8.375-34.875 5.25 0 0-9.5-11-33.5-7.125 0 0 1.625-25.625-33.75-29.125 0 0-15.625-.625-24.625 5.625 0 0-8.875-17.875-37.75-18.125 0 0-19.875-1.75-34.375 18.375 0 0-5 13-4.875 24.875l-11.125 1.5s-.375-28.125-17.875-34c0 0-18.75-12.75-44.875.75l-11.125 13.625s-1.5-20.875-31.625-21.875c0 0-21-3.125-34.5 11.75 0 0-9.625-12.5-39.625-11.25 0 0-28.625.042-46.125 28.875 0 0-8 17-4.5 31 0 0-22.3331-11.833-46.3331 7.667 0 0-6.833-11.167-25.833-11.667 0 0-19.333-.833-31.833 16.333 0 0-11.375-19.208-37.8749-18.583 0 0-19.75 1.375-28.625 17.25 0 0-9.75-20.125-32.25-13.625 0 0 1.75-34.042-16.4171-38.875 0 0-13-5.5-29.3329 5.5 0 0-20.375-21.375-52.625-5.25-.001 0-18.876 11.375-26.501 29.375z"/><path d="M18.6424 131.7218s36.375 34.625 69.125 5.875c0 0 5.125 9.625 22.375 8 0 0 19.375-.75 22.125-11.125 0 0 2.5 15.75 23.25 14.875 0 0 13.125-.625 17.75-9.625 0 0 10.125 10.625 29.625 8.25 0 0 22.125-.25 30.125-14.25 0 0 12.875 17.25 37.75 16.375 0 0 18.625-4.125 20.75-13.875 0 0 19 17.875 49.5 9.25 0 0 19.25 22.125 43.25 23.75 0 0 40.5 3.5 52-14.5 0 0 38.375 19 64.375 7 0 0 24 14 45.75.375 0 0 23.875 16.875 57.5 3.5 0 0 23.5 12 48.5-5.125 0 0 25 9.375 41.375-.125 0 0 14.875 8.625 33.75 7.5 0 0 15.25-.75 24-6.75 0 0 12.125 6.75 32.25 4.75 0 0 18.75-1.5 25-14.875 0 0 17 13.25 38 13 0 0 23.875.125 36-14.5 0 0 9.125-10.125 9.875-21.5 0 0 3.875-7.875-5.5-24 0 0-.084-8.458-62.417-23.792l-616.833 7.667-117-31.5-60.5-1-24.5 43s1 19.75 12.75 33.375z"/></g><path d="M351.8924 85.0968s-11.25-25.25-2.75-43.5c0 0 10-21.5 31-25.5 0 0 25.5-9.25 42.75 5.25 0 0 6 3.75 7.75 9 0 0 7.25-13 19.5-15.5 0 0 19.25-5.75 31.25 5.75 0 0 6.25 9 6.75 19.75 0 0 7.25 1 10.5 2.5 0 0 2.25-21.375 25.125-26 0 0 19.5.25 28.5 10.25 0 0 4.625 2.75 5.25 19.75 0 0 .375 12.875-1.625 14 0 0 14.125-13 33-6.125 0 0-.75-22 5.125-30.875 0 0 11.625-19.375 32.5-14 0 0 18.9601 1.417 23.376 14.25l2.833 12.083s9.167-13.833 27.417-13.083c0 0 20.666 1 24.333 12.667 0 0 3.167 13.1671 1.417 22 0 0 12.3321-10.25 29.916-5.5829 0 0 13.418 5.75 14.584 10.0829 0 0 4.249-8.3329 14.583-10.5 0 0 12.333-1.667 19.5 1.5 0 0 10.75-5.25 21.25-2.75 0 0 12.7491 4.583 14.833 8.6671 0 0 10.5-6.6671 26.667-7.5831 0 0 21.75 1.5 31.75 15.5 0 0 11.666 17.75 3.291 29.875 0 0-2.5 4.625-5.875 6.5 0 0 14.125 13.5 2.75 35 0 0-14.25 21.5-35.75 16.75 0 0-21.0009-1.208-37.6669-20.458 0 0-4.3331 19.417-26.8331 21.417 0 0-18.8339.083-28.4169-6.417 0 0-11.417 10.5-34 7.5 0 0-18.25-4.917-21.5-7.583 0 0-5.4991 7.583-27.1661 5 0 0-14.2509-3.167-19.8339-8 0 0-6 12.333-24.8331 11.4171 0 0-14.4169-3.25-20.1669-8.8331 0 0-7.417 12.75-31.167 10.667 0 0-15.333-3.083-24.333-11.917 0 0-9.25 9.0831-27 7.75 0 0-12.834-1.75-18.5-8.4169 0 0-18.665 11.25-38.7491 4.5829 0 0-16.584-1.667-29.167-16.167 0 0-10.25 21.917-43.75 22 0 0-29.083-4-38.083-17.917 0 0-4-4.333-5.917-8 0-.001 22.75-18.168 5.583-46.751z"/><path d="M355.6424 91.8468s13.5 5.75 35.75 12.5c0 0 20.25 6.75 50 8.75 0 0 72.25 2.25 108.5-4.75 0 0 43.375-8.25 58.5-9.125 0 0 51.625-8 85.75-6.625 0 0 18.75-.75 66.375 10.25 0 0 48.375 11.75 62.125 13.5 0 0 24.25 2.667 44.917-5.167 0 0 5.947-1.427 12.614-4.927 0 0 12.469 33.094-11.406 42.344 0 0-14.375 12.75-38.75 3.25 0 0-15.5-6.625-24.375-17.125 0 0-6.917 28.958-39.75 20.458 0 0-7.875.542-15.125-5.458 0 0-12.25 9.125-32 8 0 0-14.75-1.375-23.875-8.25 0 0-9.75 10.875-30.833 4.625l-15.75-7.25-8.166 7.5-10 3.833-10.584-.667-10.416-4.833-5.834-3.417-12.416 8.833-14.25 2.25-6.584-.417-14.166-4.5-8.084-7.25-9.749 5.917-13.417 2.167-13.333-2.583-9.167-6.333s-11.583 8.167-33.917 6.25l-14.084-3.833-12.166-6.667-8.167-7.417-11 12.25-16.333 8.583-13.333 1.75-10.667-1.833-11-3.5-10.167-5.417-7.833-4.917-3.417-4.083-4.167-7.166s5.75-5.75 10.417-17.167c0 0 3.999-12.833-.667-22.333z" fill="#e8bae7"/><g fill="#97445d"><path d="M22.8925 52.0138s-16.5 24.5-12.667 43.667c0 0 6 34.333 25 39.333 0 0 30.833 17.5 56-8 0 0 15.542-22.417-3.833-35.417 0 0-9.125-6.875-24.75 8.875 0 0-11.875 7.875-15.625-10.25 0 0-2.25-17.375 10.625-17l8.625 2.125 7.5 1.375 14.375-4.625 5.875-10.375-.125-9.375s-.875-12-12.375-17.375c0 0-16.375-10.125-38.25-1.625 0 0-13.5 5.833-20.375 18.667z"/><path d="M90.6424 44.0968s7.875-13.375 21.875-13.25c0 0 11.5-1.75 12.5 16.25l1.875 28.25s8.25-5.875 18.125-5c0 0 21.375 3.25 22 22.875 0 0-2.625 17.25 1.125 24.75 0 0 1.25 12.75-2 15.75 0 0-12.375 14.125-24.625-1.875l-2.125-16.625-5.25-9.75-4.625 1-4.875 4v7.125l-.25 9.875-6.25 6.125-12.75.5-8.125-11.875-3.75-23 .625-27.25-3.5-27.875z"/><path d="M166.0594 109.5138s6.333 27.167 32.333 29.5c0 0 32.667-1.5 36.5-30.5 0 0-24-1.5-30.167-.667 0 0-1.833 7.833-10.5-1.167 0 0-.833-5.834 6-6.167 0 0 6.75 3.417 4.583 7.75 0 0 18.083 1.75 29.917.75 0 0 4.5-27.833-27.167-38.167 0 0-20.833-7.667-37.833 17.5 0 .001-3.166 15.501-3.666 21.168zm122.75.25s6.333 27.167 32.333 29.5c0 0 32.667-1.5 36.5-30.5 0 0-24-1.5-30.167-.667 0 0-1.833 7.833-10.5-1.167 0 0-.833-5.834 6-6.167 0 0 6.75 3.417 4.583 7.75 0 0 18.083 1.75 29.917.75 0 0 4.5-27.833-27.167-38.167 0 0-20.833-7.667-37.833 17.5 0 .001-3.166 15.501-3.666 21.168zm-40.292-34.167s14.875-6.625 23.125-4.25c0 0 15.375.875 16 14.75 0 0 1.125 15.5-17.875 12.625l-7-1.75-3.25 3s-4.5 5.75-.75 11.375c0 0 2.875 7 12.125.625 0 0 6.25-5.875 12-3.125 0 0 7.5 2.875 5.25 17l-2.25 5.25-15.5 1.875-17.75-.375-8.75-5.25-6.25-13.875 3.25-23.75 7.625-14.125z"/></g><path d="M390.2675 106.5969s4.875-1.5-2.5-9.75l-16.208-13.5s-12-12.5-9.833-21.5c0 0 .083-14.167 9-22.5 0 0 8.4169-14.0831 36.333-9.75 0 0 19.666 4.333 21.083 17.9169 0 0 4.334 12.5-4.833 18.4171 0 0-10 6.8329-16.5-2 0 0-5.167-7-10.917-.583 0 0-3.833 5.083 7.833 12.833 0 0 11.792 7.542 19.042 17.042 0 0 7.625 8.25 5 22.5 0-.001-25.875 10.749-37.5-9.126z" fill="#ffa2b4"/><path d="M440.2674 53.4718s-.625-13.5 7.75-18.875c0 0 11.375-5.125 16.5-1.875 0 0 10.5 3.25 10.25 20.75 0 0 11.875-1.375 17.625 9 0 0 3.125 10.875-3.25 18.125 0 0-4.375 5.375-15.25 4.75 0 0-.625 14.75 1.625 19.125 0 0 3.75 5.875 6.625-1.875 0 0 2-8.75 12-8.125 0 0 11.5 1.25 12.5 12.375 0 0 2.125 20.25-7.375 26.625 0 0-52.625-10.375-57.625-17.25 0 0-1.875-19.25-1.25-29.625 0 0-8.25 0-13.875-10 0 0-2.625-6.875.125-14.75 0 0 2.25-8 13.625-8.375z" fill="#fec88f"/><path d="M509.2674 115.5968s-2.25-29.875 2.625-36.125c0 0 4.25-8.25 16.5-9.75 0 0 12-2.25 16 12.875 0 0 2.5 23.375.5 29.625 0 0-27.375 7.125-35.625 3.375zm.875-66.75s.125-15.25 16.125-17.375c0 0 15.5-1.375 17.125 17.75 0 0-1 16.5-18 15 0 0-13.125-1.625-15.25-15.375z" fill="#fff0a8"/><path d="M549.6424 110.2218s-1.875-19.375 13.125-32.25c0 0 12.25-9.375 25.125-6 0 0 19.875 4.25 14.75 19.875 0 0-5.5 12.25-19.875 6.5 0 0-11.75-2.75-9.75 11 0 0-16.25 1.75-23.375.875z" fill="#bbe989"/><path d="M607.5595 104.8468s-2.833-44.667 1.5-64.667c0 0 4.332-9.167 16.666-7.167 0 0 14.834-1.666 15.667 23.167l.5 11.833s2.833-2.166 10.833-12.333c0 0 15.834-16.5 27.167-13.167 0 0 21.667 10.167 1 31.5l-11.833 14.334 1.333 3.833 2.167 2.5-20.334 10.167s-32.999 2.333-44.666 0z" fill="#a6f0ff"/><path d="M693.2254 95.1798s2.833-18 20.5-23c0 0 20.001-5.834 29.334 3.833 0 0 17 13 9.333 28.667 0 0-23.166-3.667-22.333-7.667 0 0 7.333-5.542-1.792-11.167 0 0-9.5-2-7.5 6.875l3.125 4.126s-23.875 2.5-30.25-1.5" fill="#c2cbff"/><path d="M759.7675 106.0968s-2-24.5 7.625-33.875c0 0 13.625-8.125 21.125 3.375 0 0 4.875-5.25 15.375-6.5 0 0 16.875 0 17.75 20.625 0 0 0 17.125-15.125 15.25 0 0-3.25 2.625-7.875-5 0 0-8.25-4.75-6.875 8.5v3.125l-32-5.5z" fill="#ffa2b4"/><path d="M820.1425 120.7218s-.75-7.5 12.375-7.375l8.25 3.125s3.875 0 .125-3.75l-15.625-12.25-3.625-5.625.625-8.875s7.125-12.375 15.625-14.375c0 0 23.75-6.625 30.625 6.375 0 0 8 11.125-3.875 16.25 0 0-5.375 2.75-13-2.5 0 0-7.25-1-2.5 4.375 0 0 10.125 5.125 14.125 9.625 0 0 4.875 5.75 6.25 10.25 0 0-38.75 11-49.375 4.75z" fill="#fec88f"/><g fill="#7d2945"><path d="M22.0595 53.5138s-17.8331 23.833-9.8331 49.833c0 0 2.1671 23.5 29 34 0 0 27.8331 10.5 44.8331-5.167 0 0 9-5.833 10.5-16.667 0 0-15.3331 20-45.5 11.833 0 0-22.167-4.167-29.167-26.333 0 0-8.333-28.5 3.167-51.5l-3 4.001z"/><path d="M103.3924 34.0138s-7 16.666-5.333 53.333c0 0-.833 31.5 8 39.333 0 0 9.334 6.833 18.167-2.167l.166 6.834-4.167 2.833-8.667 3.833s-14.333 4.667-20.167-11c0 0 6.833-7.5 5.167-19.333 0 0-1.166-12.333-7.333-15l-.5-21.167s7-7.834 6-13.167l-3.333-13.832s5.5-10.333 12-10.5zm22.625 73.708s6.625-12.5 14.625-3.375c0 0 5.208 5.167 5.833 16.167 0 0 .083 11.208 5.667 11.708 0 0 9.5 1.813 15.667-5.042l-2.917 7.667-3.375 4.125-6 1-9.375-1.375-3.75-4-1.75-4.375-.625-5-.875-8.25-3.125-9.375-4.125-1.75-3.5.75-2.375 1.125zm55.7501-31.5s-8 13-6.625 28.5c0 0 .5 19.5 20 23.375 0 0 21.375 4 36.125-8.375 0 0-9.75 14-20.625 17.125 0 0-19.75 4.75-28.875-3.875 0 0-13-11.125-15.5-25.875 0 0-1.875-21.5 15.5-30.875zm75.208-3.375s-13.833 10.167-14.25 34.583c0 0-1.146 14.667 10.917 20.417 0 0 16.417 8.417 33.917-.917 0 0-3.167 12.667-22.5831 12.25 0 0-15.833-1.583-22.833-10.083 0 0-8.333-9.083-8.167-19.25l1.0831-12s5-21.75 21.916-25z"/></g><path d="M69.0174 38.5968s-5.375-.833-7.375 4.667c0 0-1.833 4.333 4.417 8.25 0 0 2.25 1.25 4.25 3.833 0 0 2.833 4 8.75 1.833 0 0 6.833-4 .25-13.917 0 .001-3.75-4.249-10.292-4.666zm40.875 4.083s-4.083 3.167 1.75 9.5c0 0 1.667 2.167 2.667 5.583 0 0 1.417 2.833 4.583 1.5 0 0 6-3.584 1.083-13.167 0 .001-4-6.832-10.083-3.416zm32 36.667s-1.958 4.167 2.25 6.583c0 0 3.417 1.5 4.417 3.083 0 0 1.541 2.916 4.708 2.083 0 0 3.958-1.25 3.208-5 0 0-.208-4.833-4.083-7.417 0 0-3.958-2.833-7.75-1.708 0 .001-1.667.376-2.75 2.376zm186.3751 1.313s-3.063 4.3131.375 7.8131l3.188 2.25s2.8129 1.938 3.8129 3.313c0 0 3.125 3.625 7.25 1.438 0 0 5.542-3.75.25-10.708 0 0-3.083-4.896-10.208-5.8131-.0009-.0019-3.4389-.1269-4.6679 1.707zm-55.896-3.8379s-3.937-.405-5.185 3.6659c0 0-1.1711 3.217 3.517 5.8301 0 0 1.681.824 3.231 2.6259 0 0 2.208 2.8011 6.426 1.006 0 0 4.8149-3.161-.338-10.122.0009.001-2.883-2.947-7.651-3.0059z" fill="#ff8184"/><path d="M392.1424 104.0968s15.125 5.875 35.875 7.5c0 0 .625 18.625-10.75 25.125 0 0-14.5 9.75-30.625 4.5 0 0-14-3-22.5-14.5 0 0-7.125-13.5.625-22.625 0 0 10.625-6.75 17.75.25 0 0 6.75 5.25 9.625-.25z" fill="#ef7894"/><path d="M440.8925 112.8468s44 2.375 66.25.25c0 0 .875 22-18.875 25.375 0 0-20.125 4-32.75-3.125 0 0-14.75-10.125-14.625-22.5z" fill="#e8a76d"/><path d="M508.3924 113.2218s23.75-1.75 37.125-4.75c0 0 .625 22.125-8 26.25 0 0-9.875 8-19.5 2.125 0 0-10.125-5.625-9.625-23.625z" fill="#e5c57c"/><path d="M549.3924 108.0138l23.5-3.833s-1.667 13.667 9.333 10.667c0 0 8.667-5.5 10.167-5.667 0 0 6.333-2 10.5 4 0 0 9.999 24.166-21.167 26.833 0 0-15.999.333-25.166-10.667 0 0-7.334-6.167-7.167-21.333z" fill="#8eb758"/><path d="M607.8925 99.1798s34.667-5.333 63-6.5c0 0 16.333 19.167 18.833 24 0 0 9.166 16.667-3.5 21.5 0 0-12.167 7.667-22.5-3.833 0 0-18.667-22.333-18.5-23.5 0 0-1.166 5.667-.833 12.833 0 0 .666 13.833-11.667 17 0 0-12.499 4.167-18.666-3 0 0-6.5 0-6.167-38.5z" fill="#80b5e5"/><path d="M694.2674 92.4718s16.25 0 27.125 2.5c0 0 5 3.125 9 1.625l23.5 4.625s1.125 10.875-15 7.375c0 0-15.625-1.25-17.5 1.625 0 0-3.125 7.625 4.625 6.5 0 0 10.75-2.75 15-3.25 0 0 8.75-.125 10.5 8.75 0 0 2.75 15.75-19.125 17.875 0 0-19.75 3-29.75-6.625 0 0-8.5-3.125-11.875-20.875 0 0 1.125-17.625 3.5-20.125z" fill="#8c9bdd"/><path d="M759.5174 102.4718s27.625 5.625 32.125 7.375l1.125 23.375s-3.625 9.125-18.25 6.5c0 0-12.875-.375-13.125-15.875 0 0-2.75-17.625-1.875-21.375z" fill="#ef7894"/><path d="M823.5174 116.3468s7.75.875 15.125.5c0 0 3.5.25 4.375-.5 0 0 13-1.875 24.125-5.125 0 0 8.125 11.625-1.875 23.625 0 0-8.875 8.125-24.5 4.375 0 0-15.375-4.5-18.25-9.5 0 0-6.625-8 1-13.375z" fill="#e8a76d"/><path d="M404.2674 35.0968s-2 0-2 1.813c0 0-.25 1.438 2.625 2.125 0 0 5.063 1.438 7.563 3.938 0 0 3.563 3.5 4.75 7.625 0 0 .438 2.75 3 2.688 0 0 2.938-.625 1.813-3.688 0 0-1.625-4.813-6.375-9.188-.001 0-3.959-4.23-11.376-5.313zm54.438 2.938s-2.938-.125-3.125 2.313c0 0-.438 1.75 3.813 2 0 0 2.438.438 2.875 2.938l.438 4.188s.188 1.938 2.5 2c0 0 3.375-.063 1.813-6.063-.002-.001-1.377-7.064-8.314-7.376zm-57 47.687s-1.563 1.313 2.25 4.25c0 0 7.563 8.438 9.813 13.188l1.333 2.146s.687 1.396 2.729.5c0 0 1.844-1.333.094-4.49 0 0-3.406-5.625-6.188-9.219 0 0-3.5-3.813-6.281-5.563 0 .001-3.063-1.781-3.75-.812zm74.479-23.083s.083-1.875 2.625-2.042c0 0 4.875-.875 6.5 3.667 0 0 1.75 4.5 1.042 7.625 0 0-.5 2.292-3.042 1.417 0 0-2.291-.875-1.833-3.375 0 0 .25-.833 0-3.375 0 0-.208-2-2.271-2.125 0-.001-3 .437-3.021-1.792zm13.114 40.208s-.344-2.531 4.031-2.594c0 0 4.375-.438 5.5 2.813 0 0 1.5 3.625.344 5.781 0 0-.5 1.063-1.938 1 0 0-1.219 0-1.344-1.844 0 0-.333-2.594-1.583-3.469 0 0-.396-.438-2.625-.25.001.001-2.354.396-2.385-1.437zm37.891-64.609s-.391.406-.547 1.266c0 0-.375 1.5 2.25 1.906 0 0 1.875.813 1.969 2.969l-.156 2.094s-.781 3.344 2.5 3.906c0 0 2.594.594 3.5-2.406 0 0 1.001-3.313-1.271-6.958 0 0-1.526-3.354-6.792-3.386 0-.001-1.031.046-1.453.609zm-.13 41.088s-.813 1.5 1.604 2.958c0 0 2.105 1.271 3.23 5.063 0 0 1.188 3.833 1.063 8.563l-.043 3.333s-.541 3.833 3.209 3.958c0 0 4.979.813 3.438-8.937 0 0-.625-5.167-2.25-9.875 0 0-1.042-3.354-4.104-5.417-.001 0-4.386-2.886-6.147.354zm54.334-1.396s-.916 2.083 2.25 3c0 0 2.916.875 3.833 3.333 0 0 1.124 5.5 5.208 4.292 0 0 3.333-1 1.125-5.125 0 0-.833-2.042-6.208-5.167 0 .001-5.374-2.999-6.208-.333zm42.124-36.395s-1.188 1.5 1.563 3c0 0 2.5 1.313 2.938 6.375l.376 5.813s-.334 4.959 3.708 4.542c0 0 4.249.083 3.583-5.583 0 0-.293-5.75-2.584-9.792 0 0-1.459-2.75-4.5-4.833-.001-.002-3.459-2.335-5.084.478zm47.917 8.27s-1.416 1.75 1.875 3.708c0 0 2.917 1.458 2.125 5.958 0 0-.666 3.542-1.5 5.792 0 0-1.458 2.667.5 4.083 0 0 2.082 1.917 4.416-1.708 0 0 2.208-3.667 2.375-7 0 0 .542-4.416-1.458-7.958 0 0-1.583-2.708-4.188-3.646.001.001-2.833-1.062-4.145.771zm59.989 28.448s-.75 1.844 2.406 3.063c0 0 4.438 1.969 5.594 5.219l1.875 6.094s.406 2.969 3.75 2.5c0 0 4.156-.25 1.719-7 0 0-1.501-4.99-6.417-9.156 0 0-2.875-2.458-6.458-2.333 0-.001-1.812-.147-2.469 1.613zm69.261-1.573s-1.042 1.667 2.208 2.833c0 0 3.749 1.208 4.458 4.667 0 0 .668 2.292.709 6 0 0-.458 3.75 2.625 4.125 0 0 3.499.792 4.041-4.042 0 0 .729-5.229-2.646-9.729 0 0-2.313-3.594-6.781-5.063 0 .001-3.197-1.207-4.614 1.209zm48.989-.895s-.656 1.469 3.313 2.906c0 0 3.188 1.344 3.719 3.188 0 0 .563 1.843.792 3.385 0 0 .25 1.854 3.125 1.667 0 0 2.917-.021 2.354-4.292 0 0-.167-3.52-4.271-6.312 0 0-4.104-2.563-7.938-1.688 0 0-.766.114-1.094 1.146zm2.407 29.229s-1.313 1.584.771 3.229c0 0 1.293 1.146 1.896 2.125 0 0 .77 1.229 2.916-.021 0 0 2.251-1.396-.229-3.771 0 0-1.604-1.542-3.792-2.354 0 0-.891-.308-1.562.792z"/></g><g stroke="#4d173f" stroke-linejoin="miter" fill="none" stroke-width="3"><path d="M352.7674 86.7218s-8.375-16.875-6.375-34.208c0 0 2-19.167 18.167-29.5 0 0 16.167-10.667 35-9.667 0 0 22.834.334 31.167 17.667 0 0 7.333-17.333 29.5-17.333 0 0 21.001-1.5 25.8341 15.667 0 0 1.1659 4.333 2.6659 11 0 0 5 1 10 3.167 0 0 1.167-15.167 14.917-23.042 0 0 11-6.125 23.625-2.125 0 0 19.5 4.75 20.125 21 0 0 .875 10.75-1.125 21.875 0 0 11.625-12.875 32.75-6.75 0 0-1.125-18.75 5.875-31.75 0 0 6.25-13.75 27-13.5 0 0 18.375-.125 25.875 11 0 0 4.5 4.875 5 15.875 0 0 9.125-14 30.875-13 0 0 19 .625 22.125 17.375 0 0 1.625 6 .625 17.5 0 0 8.625-7.75 24.375-6.625 0 0 13.75.5 19.625 11 0 0 10.834-18.5 34.167-8.667 0 0 19.833-10.958 36.083 5.417 0 0 11.5-8.875 32-6.75 0 0 21.585 3.083 29.001 19.583 0 0 9.832 19.167-4.501 31.5 0 0 12.918 14.417 1.751 35.25 0 0-11.667 20.333-36.834 16.5 0 0-22.501-2.833-35.834-20.333 0 0-6.333 23.375-32.458 21.75 0 0-16.375-.75-23-6.75 0 0-25.25 18-55.75-.125 0 0-17.375 15.375-46.75-3 0 0-14.25 24.375-45.125 2.625 0 0-12.082 13.667-29.749 10.667 0 0-15.668-.333-25.8339-11.333 0 0-22.8341 17.667-45.1671-1 0 0-20.125 9.042-37.625 5.042 0 0-21.25-3.75-30.625-16.625 0 0-17.083 27.083-47.083 21.25 0 0-30.667-3.5-41.167-25.75" class="C"/><path d="M1.5594 87.3468s.167-14.833 5.667-27.333c0 0 7.5-20 25.333-32.833 0 0 15.833-11.333 37.708-8.458 0 0 15 2.5 20.375 9.5 0 0 5.25-4.875 20.375-6.25 0 0 19.375-2 23.625 21.5 0 0 1.625 11.375 1.375 18.75 0 0 20.75-7.375 32.375 13.125 0 0 6.375-14.875 30.5-16.375 0 0 24.5-.625 36 17.75 0 0 8.333-14.292 29.25-15.875 0 0 16.75-2.375 28.75 11.625 0 0 20.333-18.958 45.833-7.792 0 0-3.833-20.583 8.792-37.583 0 0 13.875-20.25 42.125-22 0 0 26.25-2.417 39.417 10.583 0 0 9.667-10.667 29-11.333 0 0 22.833-1.875 31.958 10.25 0 0 3.25 4 5.375 11.875 0 0 8.1661-20.458 33.833-19.958 0 0 21.792.208 31.042 12.458 0 0 9.25 10.25 9 26.625 0 0 3.375-1.375 10.75-1.125 0 0-2-20 11.625-32.625 0 0 11.125-12.125 33.125-10.125 0 0 25.125 1.792 32.792 17.292 0 0 17.166-10.333 39.833-2 0 0 18.5 6.833 18.5 25.5 0 0 21.125-2.792 33.375 6.958 0 0 13.625-11 34.875-5.125 0 0 16.917-8.667 38.417 3.833 0 0 22.666-13.334 48.666.333 0 0 21.5 9.5 23.5 35.167 0 0 .5 16.333-6.833 21.167 0 0 14.667 20.5-5.833 45.667 0 0-17.917 20.208-50.167 11.333 0 0-13.375-3-23-10.5 0 0-13.375 25.875-57.125 10.125 0 0-26.75 15.375-57.625-1 0 0-16.5 10.375-41.625-.125 0 0-16.5 16.375-48.375 5.25 0 0-16.125 7.125-31.75 5.5 0 0-13.375-.75-25.875-8.625 0 0-20.125 13-45.5-.75 0 0-16.375 6.75-36 2.375 0 0-17.875-3-28.5-9.5 0 0-11.625 16.25-44.25 15.25 0 0-27.208 1.333-51.208-24.167 0 0-12.292 5.292-29.792.667 0 0-10.125-2-19.375-9.875 0 0-8 16-29.75 13.25 0 0-18-1.5-28.875-16.25 0 0-8 15.875-34.375 15.125 0 0-13.375.875-25.5-9.125 0 0-4.583 11.125-21.5 10.125 0 0-15.25.417-19.5-14.25 0 0-2.125 10.125-24.75 10.875 0 0-12.625 1.75-19.25-8.75 0 0-17.167 21.375-55.667 4.875 0 0-16.458-7-26.6669-28.833.0009-.001-5.1661-9.501-4.4991-26.168z"/><g class="C"><path d="M80.8925 34.3468s-29.75-13.833-51.5 8.5c0 0-21.5 23.5-19 52 0 0 2.25 25.125 19.375 36.75 0 0 14 10.25 33.5 9.25 0 0 16.25-.125 28.125-13.75 0 0 10.375-11.125 3.5-27.375 0 0-6.333-14.291-21.083-7.208 0 0-3.354 1.646-6.917 4.958 0 0-5 5.063-9.875 4.313 0 0-9.813-.938-10-13.5 0 0-1.063-10.25 6.75-14.688 0 0 4-1.813 11.125 1 0 0 9.25 4.563 18 .563 0 0 10.417-4.313 11.833-15.646 0 0 1.834-17.667-13.833-25.167zm10.875 9.25s2.958-7.75 15.625-11.583c0 0 15.667-5.167 17.333 10.5 0 0 1.333 13.666 2.333 32.833 0 0 5.167-5 16.5-5 0 0 19.75-1.167 24.083 24.5"/><path d="M88.8925 70.7218s-.25 13.375.875 23m1.75 32.75s2.375 12.875 17.5 11.875c0 0 16.25-.75 15.875-11.25l-.333-10.333s-1-9.833 6.5-10.667c0 0 6.5-1.583 8.5 10.333 0 0 1 6.333 1 11.917 0 0-.667 11.5 12.833 11.333 0 0 12.125.917 13.75-8.583 0 0 1.5-10.125 1.125-15"/></g><use xlink:href="#B"/><path d="M194.3924 105.9098c0-3.0127 2.4254-5.438 5.438-5.438s5.438 2.4253 5.438 5.438-2.4253 5.438-5.438 5.438-5.438-2.4253-5.438-5.438z"/><use xlink:href="#B" x="122.9999" y="0.75"/><path d="M317.3924 106.6598c0-3.0127 2.4253-5.438 5.438-5.438s5.438 2.4253 5.438 5.438-2.4253 5.438-5.438 5.438-5.438-2.4253-5.438-5.438z"/><g class="C"><path d="M234.3504 111.7218c.521 3.535 3.043 15.682 12.295 21.813 0 0 8.907 6.368 21.314 5.746 0 0 10.339-.078 17.895-8.542 0 0 6.601-6.911 2.227-17.005 0 0-4.03-8.878-13.415-4.478 0 0-2.134 1.021-4.4 3.079 0 0-3.181 3.145-6.283 2.68 0 0-6.243-.583-6.362-8.386 0 0-.676-6.368 4.294-9.125 0 0 2.545-1.125 7.078.622 0 0 5.885 2.833 11.4529.349 0 0 6.6281-2.68 7.5291-9.719 0 0 1.167-10.975-8.802-15.633 0 0-18.928-8.594-32.767 5.28 0 0-8.82 9.163-11.557 21.86m173.46-70.499s-18.5-3.167-29.917 3.25c0 0-15.667 8.25-16.667 25.083 0 0-2.083 13.75 8.167 23.917 0 0 10.75 9.833 18.667 15.833 0 0 5.521 4.313 2.646 7.875 0 0-2.25 3.563-8.188-1.063 0 0-8.813-8.063-17.563-.5 0 0-7.896 5.771-2.979 19.188 0 0 7.417 17 29.25 18.833 0 0 13.25 2 23.667-3.917 0 0 11-5.667 12.5-20.917 0 0 2.25-16.667-6.333-26.167 0 0-8.334-8.917-20.417-16.917 0 0-8.5-4.5-5.417-10.667 0 0 1.354-3.75 6.292-2.75 0 0 3.458.75 6.417 4.792 0 0 6.583 8.333 17.083-1.729 0 0 5.458-4.979 2.958-15.146 0 .002-2.5-15.415-20.166-18.998z"/><path d="M428.4754 58.1798s3.167-3.333 12.167-4.708c0 0-2.875-20.25 17.5-21.625 0 0 17.375-2.75 16.875 21.875 0 0 18.791-2.542 18.458 15.875 0 0 1.834 16.083-19.416 15.75 0 0 .146 12.063 1.146 17.875 0 0 .563 3.688 3.063 3.688 0 0 2.688.563 3.688-3.938 0 0 2.188-8.313 11.063-8.313 0 0 13.458-1.479 13.875 15.604 0 0 1.667 23.917-14.583 27.417 0 0-13.167 3.917-26.292 1.167 0 0-16.25-2.125-23.125-17.25 0 0-3.5-8.75-2.5-35.125 0 0-14.833-1.291-14.667-15.958 0 0-.167-3.083.333-7.083m86.082 67.166s-3.625-5.5-3.25-26c0 0-1.125-23.375 5.75-29.375 0 0 4.25-4.25 12.625-5.125 0 0 15-2.25 17 12.75 0 0 1.75 12.25 1.5 24 0 0 .124 19.5-5.542 25.75 0 0-5.333 6.333-14.416 6.167 0 0-8.5.75-13.667-8.167z"/></g><path d="M510.3094 47.8888c0-9.2562 7.4518-16.708 16.708-16.708s16.708 7.4518 16.708 16.708-7.4518 16.708-16.708 16.708-16.708-7.4518-16.708-16.708zm39.292 64.583c.399 3.551 3.0431 15.682 12.2951 21.813 0 0 8.9069 6.368 21.3139 5.746 0 0 10.339-.078 17.895-8.542 0 0 6.6011-6.911 2.227-17.005 0 0-4.029-8.878-13.414-4.478 0 0-2.135 1.021-4.4 3.079 0 0-3.182 3.145-6.2829 2.68 0 0-6.2441-.583-6.3631-8.386 0 0-.6759-6.368 4.2951-9.125 0 0 2.5449-1.125 7.078.622 0 0 5.8849 2.833 11.453.349 0 0 6.6269-2.68 7.529-9.719 0 0 1.1659-10.975-8.8031-15.633 0 0-18.928-8.594-32.766 5.28-.0009 0-8.82 9.163-11.557 21.86 0 .001-1.1239 5.917-.5 11.459zm57.291-62.375s-.25 37.5 2.75 76.75c0 0 .417 15.333 16.917 15.333 0 0 16.6681.167 17.334-17 0 0 .332-6.583.416-13.667 0 0-.167-2.75 2 0 0 0 13.75 18.583 18.667 23.667 0 0 10.5 11.083 23 2 0 0 10.667-7.167 2.167-19.667 0 0-12.001-16.417-20.376-26.667 0 0-1.6649-1.708-.124-3.375 0 0 9.624-9.938 16.374-19.438 0 0 8.7911-11.354-1.292-22.104 0 0-9.75-10-23.75 2.333 0 0-6.583 5.417-16.583 18.667 0 0-2.7509 3.375-2.667.333 0 0 .168-12.667-2.499-23 0 0-2.583-10.917-14.333-11.417 0 .002-16.667-1.915-18.001 17.252zm127.25 89.625s-11.8319 2.542-21.999-1.125c0 0-10.168-2.917-16.834-12.417 0 0-5.854-11.271-4.042-21.021 0 0 1.125-9.25 5.438-18.938 0 0 4.813-11.563 19.875-15 0 0 15.063-3.5 24.75 3.5 0 0 12.688 8.313 12.875 22.75 0 0 1.125 12.875-9.563 11.625 0 0-13.75-.938-17.563-.813 0 0-6.062-.479-6.437 4.354 0 0-1.167 5.5 6.208 4.208 0 0 2.9161-.563 5.9161-1.813 0 0 5.125-1.906 10.0629-1.125 0 0 9.5 1.25 8.938 12.688 0 .002.6241 10.169-17.625 13.127z"/><path d="M720.6424 91.6798a6.083 6.083 0 1 1 12.166 0 6.083 6.083 0 1 1-12.166 0zm41.8751-12.208s-5.75 24.625-.25 49.875c0 0 1.375 10.375 14.25 10.5 0 0 18.125 1.375 17-10.5l-1.75-24.25s-.958-5.5 5.042-5.833c0 0 1.833-.333 3.833 3.917 0 0 .833 3.75 10.25 2 0 0 11.416-2.5 11.083-15.583 0 0 .334-17.917-17.499-20 0 0-7.751-1.583-15.917 6.083 0 0-4.1661-7-13.9161-6.417 0 0-9.4169.5-12.1259 10.208z"/><path d="M821.7255 93.3888c.125 2.7921 1.761 5.3131 3.834 7.2921 0 0 5.3339 5 12.75 10.417 0 0 5.916 3.5 4.083 5.1669 0 0-1.667 1.5841-6-1.833 0 0-6.8741-4.8329-13.9161 1.875 0 0-6.2089 5.604-.521 12.5421 0 0 5.771 8.917 22.021 10.8329 0 0 18.168 2.75 23.584-8 0 0 6.521-11.2079-.104-20.896 0 0-4.625-8.25-14.938-12.8129 0 0-6.25-2-4.625-4.8131 0 0 1.125-3.438 4.688-.875 0 0 4.688 4.25 11.188 2.5631 0 0 8.293-1.75 7.376-10.8331 0 0-1-12.75-17.917-14.25 0 0-17.1689-3.1669-27.751 11.167 0 0-2.374 3.189-3.541 6.375" class="C"/></g><defs ><path id="B" d="M166.2265 104.2638c0-19.067 15.35-34.417 34.417-34.417s34.417 15.35 34.417 34.417-15.35 34.417-34.417 34.417-34.417-15.35-34.417-34.417z"/></defs></svg>