<svg xmlns="http://www.w3.org/2000/svg" width="372" height="91" stroke="#000" stroke-linecap="round" stroke-linejoin="round" fill="#fff" fill-rule="evenodd"><g stroke="none" fill-rule="nonzero"><path d="M324.833 83.666c22.552 0 40.833-18.281 40.833-40.833S347.385 2 324.833 2H44.166C21.615 2 3.333 20.281 3.333 42.833s18.282 40.833 40.833 40.833h280.667z" fill="#bbe989"/><path d="M4.583 40.416s9 17.25 38.25 21c0 0 29 8 140.25 8 0 0 66.5 0 141.5-6 0 0 32.417-1.751 39.75-30.417 0 0 19.333 43-39.667 52.667h-287S-2.167 73.499 4.583 40.416z" fill="#8eb758"/><path d="M364.333 35.583s-14.5-21.417-80-19.167c0 0-151.333-4.166-242.333 1.501 0 0-28.333 2.666-37 20 0 0-1.667-34.666 52.333-34h262s43 5.664 45 30.332" fill="#d3f1b3"/></g><path d="M325.5 85.666c22.552 0 40.833-18.281 40.833-40.833S348.052 4 325.5 4H44.833C22.282 4 4 22.281 4 44.833s18.282 40.833 40.833 40.833H325.5z" stroke="#4d173f" stroke-linejoin="miter" fill="none" stroke-width="8"/></svg>